G04 #@! TF.GenerationSoftware,KiCad,Pcbnew,(5.1.2)-1*
G04 #@! TF.CreationDate,2026-09-02T20:34:07+09:00*
G04 #@! TF.ProjectId,um,756d2e6b-6963-4616-945f-706362585858,v1.0*
G04 #@! TF.SameCoordinates,Original*
G04 #@! TF.FileFunction,Legend,Bot*
G04 #@! TF.FilePolarity,Positive*
%FSLAX46Y46*%
G04 Gerber Fmt 4.6, Leading zero omitted, Abs format (unit mm)*
G04 Created by KiCad (PCBNEW (5.1.2)-1) date 2026-09-02 20:34:07*
%MOMM*%
%LPD*%
G04 APERTURE LIST*
%ADD10C,0.120000*%
%ADD11C,0.150000*%
%ADD12C,0.100000*%
G04 APERTURE END LIST*
D10*
X120585714Y-96242857D02*
X120471428Y-96280952D01*
X120433333Y-96319047D01*
X120395238Y-96395238D01*
X120395238Y-96509523D01*
X120433333Y-96585714D01*
X120471428Y-96623809D01*
X120547619Y-96661904D01*
X120852380Y-96661904D01*
X120852380Y-95861904D01*
X120585714Y-95861904D01*
X120509523Y-95900000D01*
X120471428Y-95938095D01*
X120433333Y-96014285D01*
X120433333Y-96090476D01*
X120471428Y-96166666D01*
X120509523Y-96204761D01*
X120585714Y-96242857D01*
X120852380Y-96242857D01*
X119900000Y-95861904D02*
X119747619Y-95861904D01*
X119671428Y-95900000D01*
X119595238Y-95976190D01*
X119557142Y-96128571D01*
X119557142Y-96395238D01*
X119595238Y-96547619D01*
X119671428Y-96623809D01*
X119747619Y-96661904D01*
X119900000Y-96661904D01*
X119976190Y-96623809D01*
X120052380Y-96547619D01*
X120090476Y-96395238D01*
X120090476Y-96128571D01*
X120052380Y-95976190D01*
X119976190Y-95900000D01*
X119900000Y-95861904D01*
X119061904Y-95861904D02*
X118909523Y-95861904D01*
X118833333Y-95900000D01*
X118757142Y-95976190D01*
X118719047Y-96128571D01*
X118719047Y-96395238D01*
X118757142Y-96547619D01*
X118833333Y-96623809D01*
X118909523Y-96661904D01*
X119061904Y-96661904D01*
X119138095Y-96623809D01*
X119214285Y-96547619D01*
X119252380Y-96395238D01*
X119252380Y-96128571D01*
X119214285Y-95976190D01*
X119138095Y-95900000D01*
X119061904Y-95861904D01*
X118490476Y-95861904D02*
X118033333Y-95861904D01*
X118261904Y-96661904D02*
X118261904Y-95861904D01*
X110941904Y-95633333D02*
X110141904Y-95633333D01*
X110941904Y-96090476D01*
X110141904Y-96090476D01*
X110941904Y-96814285D02*
X110522857Y-96814285D01*
X110446666Y-96776190D01*
X110408571Y-96700000D01*
X110408571Y-96547619D01*
X110446666Y-96471428D01*
X110903809Y-96814285D02*
X110941904Y-96738095D01*
X110941904Y-96547619D01*
X110903809Y-96471428D01*
X110827619Y-96433333D01*
X110751428Y-96433333D01*
X110675238Y-96471428D01*
X110637142Y-96547619D01*
X110637142Y-96738095D01*
X110599047Y-96814285D01*
X110408571Y-97195238D02*
X110941904Y-97195238D01*
X110484761Y-97195238D02*
X110446666Y-97233333D01*
X110408571Y-97309523D01*
X110408571Y-97423809D01*
X110446666Y-97500000D01*
X110522857Y-97538095D01*
X110941904Y-97538095D01*
X110941904Y-98033333D02*
X110903809Y-97957142D01*
X110865714Y-97919047D01*
X110789523Y-97880952D01*
X110560952Y-97880952D01*
X110484761Y-97919047D01*
X110446666Y-97957142D01*
X110408571Y-98033333D01*
X110408571Y-98147619D01*
X110446666Y-98223809D01*
X110484761Y-98261904D01*
X110560952Y-98300000D01*
X110789523Y-98300000D01*
X110865714Y-98261904D01*
X110903809Y-98223809D01*
X110941904Y-98147619D01*
X110941904Y-98033333D01*
X110141904Y-99252380D02*
X110789523Y-99252380D01*
X110865714Y-99290476D01*
X110903809Y-99328571D01*
X110941904Y-99404761D01*
X110941904Y-99557142D01*
X110903809Y-99633333D01*
X110865714Y-99671428D01*
X110789523Y-99709523D01*
X110141904Y-99709523D01*
X110903809Y-100052380D02*
X110941904Y-100166666D01*
X110941904Y-100357142D01*
X110903809Y-100433333D01*
X110865714Y-100471428D01*
X110789523Y-100509523D01*
X110713333Y-100509523D01*
X110637142Y-100471428D01*
X110599047Y-100433333D01*
X110560952Y-100357142D01*
X110522857Y-100204761D01*
X110484761Y-100128571D01*
X110446666Y-100090476D01*
X110370476Y-100052380D01*
X110294285Y-100052380D01*
X110218095Y-100090476D01*
X110180000Y-100128571D01*
X110141904Y-100204761D01*
X110141904Y-100395238D01*
X110180000Y-100509523D01*
X110522857Y-101119047D02*
X110560952Y-101233333D01*
X110599047Y-101271428D01*
X110675238Y-101309523D01*
X110789523Y-101309523D01*
X110865714Y-101271428D01*
X110903809Y-101233333D01*
X110941904Y-101157142D01*
X110941904Y-100852380D01*
X110141904Y-100852380D01*
X110141904Y-101119047D01*
X110180000Y-101195238D01*
X110218095Y-101233333D01*
X110294285Y-101271428D01*
X110370476Y-101271428D01*
X110446666Y-101233333D01*
X110484761Y-101195238D01*
X110522857Y-101119047D01*
X110522857Y-100852380D01*
X110903809Y-102223809D02*
X110941904Y-102338095D01*
X110941904Y-102528571D01*
X110903809Y-102604761D01*
X110865714Y-102642857D01*
X110789523Y-102680952D01*
X110713333Y-102680952D01*
X110637142Y-102642857D01*
X110599047Y-102604761D01*
X110560952Y-102528571D01*
X110522857Y-102376190D01*
X110484761Y-102300000D01*
X110446666Y-102261904D01*
X110370476Y-102223809D01*
X110294285Y-102223809D01*
X110218095Y-102261904D01*
X110180000Y-102300000D01*
X110141904Y-102376190D01*
X110141904Y-102566666D01*
X110180000Y-102680952D01*
X110903809Y-103366666D02*
X110941904Y-103290476D01*
X110941904Y-103138095D01*
X110903809Y-103061904D01*
X110865714Y-103023809D01*
X110789523Y-102985714D01*
X110560952Y-102985714D01*
X110484761Y-103023809D01*
X110446666Y-103061904D01*
X110408571Y-103138095D01*
X110408571Y-103290476D01*
X110446666Y-103366666D01*
X110941904Y-103709523D02*
X110408571Y-103709523D01*
X110560952Y-103709523D02*
X110484761Y-103747619D01*
X110446666Y-103785714D01*
X110408571Y-103861904D01*
X110408571Y-103938095D01*
X110941904Y-104319047D02*
X110903809Y-104242857D01*
X110865714Y-104204761D01*
X110789523Y-104166666D01*
X110560952Y-104166666D01*
X110484761Y-104204761D01*
X110446666Y-104242857D01*
X110408571Y-104319047D01*
X110408571Y-104433333D01*
X110446666Y-104509523D01*
X110484761Y-104547619D01*
X110560952Y-104585714D01*
X110789523Y-104585714D01*
X110865714Y-104547619D01*
X110903809Y-104509523D01*
X110941904Y-104433333D01*
X110941904Y-104319047D01*
X110941904Y-105042857D02*
X110903809Y-104966666D01*
X110827619Y-104928571D01*
X110141904Y-104928571D01*
X110941904Y-105461904D02*
X110903809Y-105385714D01*
X110827619Y-105347619D01*
X110141904Y-105347619D01*
X110903809Y-106071428D02*
X110941904Y-105995238D01*
X110941904Y-105842857D01*
X110903809Y-105766666D01*
X110827619Y-105728571D01*
X110522857Y-105728571D01*
X110446666Y-105766666D01*
X110408571Y-105842857D01*
X110408571Y-105995238D01*
X110446666Y-106071428D01*
X110522857Y-106109523D01*
X110599047Y-106109523D01*
X110675238Y-105728571D01*
X110941904Y-106452380D02*
X110408571Y-106452380D01*
X110560952Y-106452380D02*
X110484761Y-106490476D01*
X110446666Y-106528571D01*
X110408571Y-106604761D01*
X110408571Y-106680952D01*
X111728571Y-98128571D02*
X112261904Y-98319047D01*
X111728571Y-98509523D01*
X112261904Y-99233333D02*
X112261904Y-98776190D01*
X112261904Y-99004761D02*
X111461904Y-99004761D01*
X111576190Y-98928571D01*
X111652380Y-98852380D01*
X111690476Y-98776190D01*
X112185714Y-99576190D02*
X112223809Y-99614285D01*
X112261904Y-99576190D01*
X112223809Y-99538095D01*
X112185714Y-99576190D01*
X112261904Y-99576190D01*
X112261904Y-100376190D02*
X112261904Y-99919047D01*
X112261904Y-100147619D02*
X111461904Y-100147619D01*
X111576190Y-100071428D01*
X111652380Y-99995238D01*
X111690476Y-99919047D01*
X111538095Y-101290476D02*
X111500000Y-101328571D01*
X111461904Y-101404761D01*
X111461904Y-101595238D01*
X111500000Y-101671428D01*
X111538095Y-101709523D01*
X111614285Y-101747619D01*
X111690476Y-101747619D01*
X111804761Y-101709523D01*
X112261904Y-101252380D01*
X112261904Y-101747619D01*
X111461904Y-102433333D02*
X111461904Y-102280952D01*
X111500000Y-102204761D01*
X111538095Y-102166666D01*
X111652380Y-102090476D01*
X111804761Y-102052380D01*
X112109523Y-102052380D01*
X112185714Y-102090476D01*
X112223809Y-102128571D01*
X112261904Y-102204761D01*
X112261904Y-102357142D01*
X112223809Y-102433333D01*
X112185714Y-102471428D01*
X112109523Y-102509523D01*
X111919047Y-102509523D01*
X111842857Y-102471428D01*
X111804761Y-102433333D01*
X111766666Y-102357142D01*
X111766666Y-102204761D01*
X111804761Y-102128571D01*
X111842857Y-102090476D01*
X111919047Y-102052380D01*
X111461904Y-103004761D02*
X111461904Y-103080952D01*
X111500000Y-103157142D01*
X111538095Y-103195238D01*
X111614285Y-103233333D01*
X111766666Y-103271428D01*
X111957142Y-103271428D01*
X112109523Y-103233333D01*
X112185714Y-103195238D01*
X112223809Y-103157142D01*
X112261904Y-103080952D01*
X112261904Y-103004761D01*
X112223809Y-102928571D01*
X112185714Y-102890476D01*
X112109523Y-102852380D01*
X111957142Y-102814285D01*
X111766666Y-102814285D01*
X111614285Y-102852380D01*
X111538095Y-102890476D01*
X111500000Y-102928571D01*
X111461904Y-103004761D01*
X111804761Y-103728571D02*
X111766666Y-103652380D01*
X111728571Y-103614285D01*
X111652380Y-103576190D01*
X111614285Y-103576190D01*
X111538095Y-103614285D01*
X111500000Y-103652380D01*
X111461904Y-103728571D01*
X111461904Y-103880952D01*
X111500000Y-103957142D01*
X111538095Y-103995238D01*
X111614285Y-104033333D01*
X111652380Y-104033333D01*
X111728571Y-103995238D01*
X111766666Y-103957142D01*
X111804761Y-103880952D01*
X111804761Y-103728571D01*
X111842857Y-103652380D01*
X111880952Y-103614285D01*
X111957142Y-103576190D01*
X112109523Y-103576190D01*
X112185714Y-103614285D01*
X112223809Y-103652380D01*
X112261904Y-103728571D01*
X112261904Y-103880952D01*
X112223809Y-103957142D01*
X112185714Y-103995238D01*
X112109523Y-104033333D01*
X111957142Y-104033333D01*
X111880952Y-103995238D01*
X111842857Y-103957142D01*
X111804761Y-103880952D01*
X113505714Y-99157142D02*
X113543809Y-99119047D01*
X113581904Y-99004761D01*
X113581904Y-98928571D01*
X113543809Y-98814285D01*
X113467619Y-98738095D01*
X113391428Y-98700000D01*
X113239047Y-98661904D01*
X113124761Y-98661904D01*
X112972380Y-98700000D01*
X112896190Y-98738095D01*
X112820000Y-98814285D01*
X112781904Y-98928571D01*
X112781904Y-99004761D01*
X112820000Y-99119047D01*
X112858095Y-99157142D01*
X113581904Y-99500000D02*
X113048571Y-99500000D01*
X113200952Y-99500000D02*
X113124761Y-99538095D01*
X113086666Y-99576190D01*
X113048571Y-99652380D01*
X113048571Y-99728571D01*
X113543809Y-100300000D02*
X113581904Y-100223809D01*
X113581904Y-100071428D01*
X113543809Y-99995238D01*
X113467619Y-99957142D01*
X113162857Y-99957142D01*
X113086666Y-99995238D01*
X113048571Y-100071428D01*
X113048571Y-100223809D01*
X113086666Y-100300000D01*
X113162857Y-100338095D01*
X113239047Y-100338095D01*
X113315238Y-99957142D01*
X113543809Y-100642857D02*
X113581904Y-100719047D01*
X113581904Y-100871428D01*
X113543809Y-100947619D01*
X113467619Y-100985714D01*
X113429523Y-100985714D01*
X113353333Y-100947619D01*
X113315238Y-100871428D01*
X113315238Y-100757142D01*
X113277142Y-100680952D01*
X113200952Y-100642857D01*
X113162857Y-100642857D01*
X113086666Y-100680952D01*
X113048571Y-100757142D01*
X113048571Y-100871428D01*
X113086666Y-100947619D01*
X113543809Y-101671428D02*
X113581904Y-101595238D01*
X113581904Y-101442857D01*
X113543809Y-101366666D01*
X113505714Y-101328571D01*
X113429523Y-101290476D01*
X113200952Y-101290476D01*
X113124761Y-101328571D01*
X113086666Y-101366666D01*
X113048571Y-101442857D01*
X113048571Y-101595238D01*
X113086666Y-101671428D01*
X113543809Y-102319047D02*
X113581904Y-102242857D01*
X113581904Y-102090476D01*
X113543809Y-102014285D01*
X113467619Y-101976190D01*
X113162857Y-101976190D01*
X113086666Y-102014285D01*
X113048571Y-102090476D01*
X113048571Y-102242857D01*
X113086666Y-102319047D01*
X113162857Y-102357142D01*
X113239047Y-102357142D01*
X113315238Y-101976190D01*
X113048571Y-102700000D02*
X113581904Y-102700000D01*
X113124761Y-102700000D02*
X113086666Y-102738095D01*
X113048571Y-102814285D01*
X113048571Y-102928571D01*
X113086666Y-103004761D01*
X113162857Y-103042857D01*
X113581904Y-103042857D01*
X113048571Y-103309523D02*
X113048571Y-103614285D01*
X112781904Y-103423809D02*
X113467619Y-103423809D01*
X113543809Y-103461904D01*
X113581904Y-103538095D01*
X113581904Y-103614285D01*
X132304761Y-105857142D02*
X131695238Y-105857142D01*
X132000000Y-106161904D02*
X132000000Y-105552380D01*
D11*
X127975000Y-99550000D02*
X129200000Y-99550000D01*
X127975000Y-102675000D02*
X124625000Y-102675000D01*
X127975000Y-99325000D02*
X124625000Y-99325000D01*
X127975000Y-102675000D02*
X127975000Y-102375000D01*
X124625000Y-102675000D02*
X124625000Y-102375000D01*
X124625000Y-99325000D02*
X124625000Y-99625000D01*
X127975000Y-99325000D02*
X127975000Y-99550000D01*
D10*
X131400000Y-101500000D02*
G75*
G03X131400000Y-101500000I-700000J0D01*
G01*
X119537221Y-107010000D02*
X119862779Y-107010000D01*
X119537221Y-105990000D02*
X119862779Y-105990000D01*
D12*
X129660000Y-105900000D02*
G75*
G03X129660000Y-105900000I-50000J0D01*
G01*
D10*
X121766666Y-94561904D02*
X121766666Y-95133333D01*
X121804761Y-95247619D01*
X121880952Y-95323809D01*
X121995238Y-95361904D01*
X122071428Y-95361904D01*
X121423809Y-94638095D02*
X121385714Y-94600000D01*
X121309523Y-94561904D01*
X121119047Y-94561904D01*
X121042857Y-94600000D01*
X121004761Y-94638095D01*
X120966666Y-94714285D01*
X120966666Y-94790476D01*
X121004761Y-94904761D01*
X121461904Y-95361904D01*
X120966666Y-95361904D01*
D12*
X129107142Y-98721428D02*
X129107142Y-99207142D01*
X129078571Y-99264285D01*
X129050000Y-99292857D01*
X128992857Y-99321428D01*
X128878571Y-99321428D01*
X128821428Y-99292857D01*
X128792857Y-99264285D01*
X128764285Y-99207142D01*
X128764285Y-98721428D01*
X128164285Y-99321428D02*
X128507142Y-99321428D01*
X128335714Y-99321428D02*
X128335714Y-98721428D01*
X128392857Y-98807142D01*
X128450000Y-98864285D01*
X128507142Y-98892857D01*
X131157142Y-102371428D02*
X130814285Y-102371428D01*
X130985714Y-102971428D02*
X130985714Y-102371428D01*
X130300000Y-102971428D02*
X130642857Y-102971428D01*
X130471428Y-102971428D02*
X130471428Y-102371428D01*
X130528571Y-102457142D01*
X130585714Y-102514285D01*
X130642857Y-102542857D01*
X119200000Y-103871428D02*
X119400000Y-103585714D01*
X119542857Y-103871428D02*
X119542857Y-103271428D01*
X119314285Y-103271428D01*
X119257142Y-103300000D01*
X119228571Y-103328571D01*
X119200000Y-103385714D01*
X119200000Y-103471428D01*
X119228571Y-103528571D01*
X119257142Y-103557142D01*
X119314285Y-103585714D01*
X119542857Y-103585714D01*
X118685714Y-103271428D02*
X118800000Y-103271428D01*
X118857142Y-103300000D01*
X118885714Y-103328571D01*
X118942857Y-103414285D01*
X118971428Y-103528571D01*
X118971428Y-103757142D01*
X118942857Y-103814285D01*
X118914285Y-103842857D01*
X118857142Y-103871428D01*
X118742857Y-103871428D01*
X118685714Y-103842857D01*
X118657142Y-103814285D01*
X118628571Y-103757142D01*
X118628571Y-103614285D01*
X118657142Y-103557142D01*
X118685714Y-103528571D01*
X118742857Y-103500000D01*
X118857142Y-103500000D01*
X118914285Y-103528571D01*
X118942857Y-103557142D01*
X118971428Y-103614285D01*
X119200000Y-105171428D02*
X119400000Y-104885714D01*
X119542857Y-105171428D02*
X119542857Y-104571428D01*
X119314285Y-104571428D01*
X119257142Y-104600000D01*
X119228571Y-104628571D01*
X119200000Y-104685714D01*
X119200000Y-104771428D01*
X119228571Y-104828571D01*
X119257142Y-104857142D01*
X119314285Y-104885714D01*
X119542857Y-104885714D01*
X118657142Y-104571428D02*
X118942857Y-104571428D01*
X118971428Y-104857142D01*
X118942857Y-104828571D01*
X118885714Y-104800000D01*
X118742857Y-104800000D01*
X118685714Y-104828571D01*
X118657142Y-104857142D01*
X118628571Y-104914285D01*
X118628571Y-105057142D01*
X118657142Y-105114285D01*
X118685714Y-105142857D01*
X118742857Y-105171428D01*
X118885714Y-105171428D01*
X118942857Y-105142857D01*
X118971428Y-105114285D01*
X119200000Y-102571428D02*
X119400000Y-102285714D01*
X119542857Y-102571428D02*
X119542857Y-101971428D01*
X119314285Y-101971428D01*
X119257142Y-102000000D01*
X119228571Y-102028571D01*
X119200000Y-102085714D01*
X119200000Y-102171428D01*
X119228571Y-102228571D01*
X119257142Y-102257142D01*
X119314285Y-102285714D01*
X119542857Y-102285714D01*
X118685714Y-102171428D02*
X118685714Y-102571428D01*
X118828571Y-101942857D02*
X118971428Y-102371428D01*
X118600000Y-102371428D01*
X129700000Y-103771428D02*
X129900000Y-103485714D01*
X130042857Y-103771428D02*
X130042857Y-103171428D01*
X129814285Y-103171428D01*
X129757142Y-103200000D01*
X129728571Y-103228571D01*
X129700000Y-103285714D01*
X129700000Y-103371428D01*
X129728571Y-103428571D01*
X129757142Y-103457142D01*
X129814285Y-103485714D01*
X130042857Y-103485714D01*
X129500000Y-103171428D02*
X129128571Y-103171428D01*
X129328571Y-103400000D01*
X129242857Y-103400000D01*
X129185714Y-103428571D01*
X129157142Y-103457142D01*
X129128571Y-103514285D01*
X129128571Y-103657142D01*
X129157142Y-103714285D01*
X129185714Y-103742857D01*
X129242857Y-103771428D01*
X129414285Y-103771428D01*
X129471428Y-103742857D01*
X129500000Y-103714285D01*
X119150000Y-98321428D02*
X119350000Y-98035714D01*
X119492857Y-98321428D02*
X119492857Y-97721428D01*
X119264285Y-97721428D01*
X119207142Y-97750000D01*
X119178571Y-97778571D01*
X119150000Y-97835714D01*
X119150000Y-97921428D01*
X119178571Y-97978571D01*
X119207142Y-98007142D01*
X119264285Y-98035714D01*
X119492857Y-98035714D01*
X118921428Y-97778571D02*
X118892857Y-97750000D01*
X118835714Y-97721428D01*
X118692857Y-97721428D01*
X118635714Y-97750000D01*
X118607142Y-97778571D01*
X118578571Y-97835714D01*
X118578571Y-97892857D01*
X118607142Y-97978571D01*
X118950000Y-98321428D01*
X118578571Y-98321428D01*
X129300000Y-104871428D02*
X129500000Y-104585714D01*
X129642857Y-104871428D02*
X129642857Y-104271428D01*
X129414285Y-104271428D01*
X129357142Y-104300000D01*
X129328571Y-104328571D01*
X129300000Y-104385714D01*
X129300000Y-104471428D01*
X129328571Y-104528571D01*
X129357142Y-104557142D01*
X129414285Y-104585714D01*
X129642857Y-104585714D01*
X128728571Y-104871428D02*
X129071428Y-104871428D01*
X128900000Y-104871428D02*
X128900000Y-104271428D01*
X128957142Y-104357142D01*
X129014285Y-104414285D01*
X129071428Y-104442857D01*
X121800000Y-106457142D02*
X122000000Y-106457142D01*
X122000000Y-106771428D02*
X122000000Y-106171428D01*
X121714285Y-106171428D01*
X121171428Y-106771428D02*
X121514285Y-106771428D01*
X121342857Y-106771428D02*
X121342857Y-106171428D01*
X121400000Y-106257142D01*
X121457142Y-106314285D01*
X121514285Y-106342857D01*
X129592857Y-106171428D02*
X129592857Y-105571428D01*
X129450000Y-105571428D01*
X129364285Y-105600000D01*
X129307142Y-105657142D01*
X129278571Y-105714285D01*
X129250000Y-105828571D01*
X129250000Y-105914285D01*
X129278571Y-106028571D01*
X129307142Y-106085714D01*
X129364285Y-106142857D01*
X129450000Y-106171428D01*
X129592857Y-106171428D01*
X128678571Y-106171428D02*
X129021428Y-106171428D01*
X128850000Y-106171428D02*
X128850000Y-105571428D01*
X128907142Y-105657142D01*
X128964285Y-105714285D01*
X129021428Y-105742857D01*
X119150000Y-99664285D02*
X119178571Y-99692857D01*
X119264285Y-99721428D01*
X119321428Y-99721428D01*
X119407142Y-99692857D01*
X119464285Y-99635714D01*
X119492857Y-99578571D01*
X119521428Y-99464285D01*
X119521428Y-99378571D01*
X119492857Y-99264285D01*
X119464285Y-99207142D01*
X119407142Y-99150000D01*
X119321428Y-99121428D01*
X119264285Y-99121428D01*
X119178571Y-99150000D01*
X119150000Y-99178571D01*
X118921428Y-99178571D02*
X118892857Y-99150000D01*
X118835714Y-99121428D01*
X118692857Y-99121428D01*
X118635714Y-99150000D01*
X118607142Y-99178571D01*
X118578571Y-99235714D01*
X118578571Y-99292857D01*
X118607142Y-99378571D01*
X118950000Y-99721428D01*
X118578571Y-99721428D01*
X119150000Y-100964285D02*
X119178571Y-100992857D01*
X119264285Y-101021428D01*
X119321428Y-101021428D01*
X119407142Y-100992857D01*
X119464285Y-100935714D01*
X119492857Y-100878571D01*
X119521428Y-100764285D01*
X119521428Y-100678571D01*
X119492857Y-100564285D01*
X119464285Y-100507142D01*
X119407142Y-100450000D01*
X119321428Y-100421428D01*
X119264285Y-100421428D01*
X119178571Y-100450000D01*
X119150000Y-100478571D01*
X118578571Y-101021428D02*
X118921428Y-101021428D01*
X118750000Y-101021428D02*
X118750000Y-100421428D01*
X118807142Y-100507142D01*
X118864285Y-100564285D01*
X118921428Y-100592857D01*
M02*
