G04 #@! TF.GenerationSoftware,KiCad,Pcbnew,(5.1.2)-1*
G04 #@! TF.CreationDate,2026-09-02T20:34:07+09:00*
G04 #@! TF.ProjectId,um,756d2e6b-6963-4616-945f-706362585858,v1.0*
G04 #@! TF.SameCoordinates,Original*
G04 #@! TF.FileFunction,Soldermask,Bot*
G04 #@! TF.FilePolarity,Negative*
%FSLAX46Y46*%
G04 Gerber Fmt 4.6, Leading zero omitted, Abs format (unit mm)*
G04 Created by KiCad (PCBNEW (5.1.2)-1) date 2026-09-02 20:34:07*
%MOMM*%
%LPD*%
G04 APERTURE LIST*
%ADD10C,0.100000*%
G04 APERTURE END LIST*
D10*
G36*
X120829591Y-105978085D02*
G01*
X120863569Y-105988393D01*
X120894890Y-106005134D01*
X120922339Y-106027661D01*
X120944866Y-106055110D01*
X120961607Y-106086431D01*
X120971915Y-106120409D01*
X120976000Y-106161890D01*
X120976000Y-106838110D01*
X120971915Y-106879591D01*
X120961607Y-106913569D01*
X120944866Y-106944890D01*
X120922339Y-106972339D01*
X120894890Y-106994866D01*
X120863569Y-107011607D01*
X120829591Y-107021915D01*
X120788110Y-107026000D01*
X120186890Y-107026000D01*
X120145409Y-107021915D01*
X120111431Y-107011607D01*
X120080110Y-106994866D01*
X120052661Y-106972339D01*
X120030134Y-106944890D01*
X120013393Y-106913569D01*
X120003085Y-106879591D01*
X119999000Y-106838110D01*
X119999000Y-106161890D01*
X120003085Y-106120409D01*
X120013393Y-106086431D01*
X120030134Y-106055110D01*
X120052661Y-106027661D01*
X120080110Y-106005134D01*
X120111431Y-105988393D01*
X120145409Y-105978085D01*
X120186890Y-105974000D01*
X120788110Y-105974000D01*
X120829591Y-105978085D01*
X120829591Y-105978085D01*
G37*
G36*
X119254591Y-105978085D02*
G01*
X119288569Y-105988393D01*
X119319890Y-106005134D01*
X119347339Y-106027661D01*
X119369866Y-106055110D01*
X119386607Y-106086431D01*
X119396915Y-106120409D01*
X119401000Y-106161890D01*
X119401000Y-106838110D01*
X119396915Y-106879591D01*
X119386607Y-106913569D01*
X119369866Y-106944890D01*
X119347339Y-106972339D01*
X119319890Y-106994866D01*
X119288569Y-107011607D01*
X119254591Y-107021915D01*
X119213110Y-107026000D01*
X118611890Y-107026000D01*
X118570409Y-107021915D01*
X118536431Y-107011607D01*
X118505110Y-106994866D01*
X118477661Y-106972339D01*
X118455134Y-106944890D01*
X118438393Y-106913569D01*
X118428085Y-106879591D01*
X118424000Y-106838110D01*
X118424000Y-106161890D01*
X118428085Y-106120409D01*
X118438393Y-106086431D01*
X118455134Y-106055110D01*
X118477661Y-106027661D01*
X118505110Y-106005134D01*
X118536431Y-105988393D01*
X118570409Y-105978085D01*
X118611890Y-105974000D01*
X119213110Y-105974000D01*
X119254591Y-105978085D01*
X119254591Y-105978085D01*
G37*
G36*
X131441938Y-105531716D02*
G01*
X131462557Y-105537971D01*
X131481553Y-105548124D01*
X131498208Y-105561792D01*
X131511876Y-105578447D01*
X131522029Y-105597443D01*
X131528284Y-105618062D01*
X131531000Y-105645640D01*
X131531000Y-106154360D01*
X131528284Y-106181938D01*
X131522029Y-106202557D01*
X131511876Y-106221553D01*
X131498208Y-106238208D01*
X131481553Y-106251876D01*
X131462557Y-106262029D01*
X131441938Y-106268284D01*
X131414360Y-106271000D01*
X130955640Y-106271000D01*
X130928062Y-106268284D01*
X130907443Y-106262029D01*
X130888447Y-106251876D01*
X130871792Y-106238208D01*
X130858124Y-106221553D01*
X130847971Y-106202557D01*
X130841716Y-106181938D01*
X130839000Y-106154360D01*
X130839000Y-105645640D01*
X130841716Y-105618062D01*
X130847971Y-105597443D01*
X130858124Y-105578447D01*
X130871792Y-105561792D01*
X130888447Y-105548124D01*
X130907443Y-105537971D01*
X130928062Y-105531716D01*
X130955640Y-105529000D01*
X131414360Y-105529000D01*
X131441938Y-105531716D01*
X131441938Y-105531716D01*
G37*
G36*
X130471938Y-105531716D02*
G01*
X130492557Y-105537971D01*
X130511553Y-105548124D01*
X130528208Y-105561792D01*
X130541876Y-105578447D01*
X130552029Y-105597443D01*
X130558284Y-105618062D01*
X130561000Y-105645640D01*
X130561000Y-106154360D01*
X130558284Y-106181938D01*
X130552029Y-106202557D01*
X130541876Y-106221553D01*
X130528208Y-106238208D01*
X130511553Y-106251876D01*
X130492557Y-106262029D01*
X130471938Y-106268284D01*
X130444360Y-106271000D01*
X129985640Y-106271000D01*
X129958062Y-106268284D01*
X129937443Y-106262029D01*
X129918447Y-106251876D01*
X129901792Y-106238208D01*
X129888124Y-106221553D01*
X129877971Y-106202557D01*
X129871716Y-106181938D01*
X129869000Y-106154360D01*
X129869000Y-105645640D01*
X129871716Y-105618062D01*
X129877971Y-105597443D01*
X129888124Y-105578447D01*
X129901792Y-105561792D01*
X129918447Y-105548124D01*
X129937443Y-105537971D01*
X129958062Y-105531716D01*
X129985640Y-105529000D01*
X130444360Y-105529000D01*
X130471938Y-105531716D01*
X130471938Y-105531716D01*
G37*
G36*
X120371938Y-104531716D02*
G01*
X120392557Y-104537971D01*
X120411553Y-104548124D01*
X120428208Y-104561792D01*
X120441876Y-104578447D01*
X120452029Y-104597443D01*
X120458284Y-104618062D01*
X120461000Y-104645640D01*
X120461000Y-105154360D01*
X120458284Y-105181938D01*
X120452029Y-105202557D01*
X120441876Y-105221553D01*
X120428208Y-105238208D01*
X120411553Y-105251876D01*
X120392557Y-105262029D01*
X120371938Y-105268284D01*
X120344360Y-105271000D01*
X119885640Y-105271000D01*
X119858062Y-105268284D01*
X119837443Y-105262029D01*
X119818447Y-105251876D01*
X119801792Y-105238208D01*
X119788124Y-105221553D01*
X119777971Y-105202557D01*
X119771716Y-105181938D01*
X119769000Y-105154360D01*
X119769000Y-104645640D01*
X119771716Y-104618062D01*
X119777971Y-104597443D01*
X119788124Y-104578447D01*
X119801792Y-104561792D01*
X119818447Y-104548124D01*
X119837443Y-104537971D01*
X119858062Y-104531716D01*
X119885640Y-104529000D01*
X120344360Y-104529000D01*
X120371938Y-104531716D01*
X120371938Y-104531716D01*
G37*
G36*
X121341938Y-104531716D02*
G01*
X121362557Y-104537971D01*
X121381553Y-104548124D01*
X121398208Y-104561792D01*
X121411876Y-104578447D01*
X121422029Y-104597443D01*
X121428284Y-104618062D01*
X121431000Y-104645640D01*
X121431000Y-105154360D01*
X121428284Y-105181938D01*
X121422029Y-105202557D01*
X121411876Y-105221553D01*
X121398208Y-105238208D01*
X121381553Y-105251876D01*
X121362557Y-105262029D01*
X121341938Y-105268284D01*
X121314360Y-105271000D01*
X120855640Y-105271000D01*
X120828062Y-105268284D01*
X120807443Y-105262029D01*
X120788447Y-105251876D01*
X120771792Y-105238208D01*
X120758124Y-105221553D01*
X120747971Y-105202557D01*
X120741716Y-105181938D01*
X120739000Y-105154360D01*
X120739000Y-104645640D01*
X120741716Y-104618062D01*
X120747971Y-104597443D01*
X120758124Y-104578447D01*
X120771792Y-104561792D01*
X120788447Y-104548124D01*
X120807443Y-104537971D01*
X120828062Y-104531716D01*
X120855640Y-104529000D01*
X121314360Y-104529000D01*
X121341938Y-104531716D01*
X121341938Y-104531716D01*
G37*
G36*
X130471938Y-104231716D02*
G01*
X130492557Y-104237971D01*
X130511553Y-104248124D01*
X130528208Y-104261792D01*
X130541876Y-104278447D01*
X130552029Y-104297443D01*
X130558284Y-104318062D01*
X130561000Y-104345640D01*
X130561000Y-104854360D01*
X130558284Y-104881938D01*
X130552029Y-104902557D01*
X130541876Y-104921553D01*
X130528208Y-104938208D01*
X130511553Y-104951876D01*
X130492557Y-104962029D01*
X130471938Y-104968284D01*
X130444360Y-104971000D01*
X129985640Y-104971000D01*
X129958062Y-104968284D01*
X129937443Y-104962029D01*
X129918447Y-104951876D01*
X129901792Y-104938208D01*
X129888124Y-104921553D01*
X129877971Y-104902557D01*
X129871716Y-104881938D01*
X129869000Y-104854360D01*
X129869000Y-104345640D01*
X129871716Y-104318062D01*
X129877971Y-104297443D01*
X129888124Y-104278447D01*
X129901792Y-104261792D01*
X129918447Y-104248124D01*
X129937443Y-104237971D01*
X129958062Y-104231716D01*
X129985640Y-104229000D01*
X130444360Y-104229000D01*
X130471938Y-104231716D01*
X130471938Y-104231716D01*
G37*
G36*
X131441938Y-104231716D02*
G01*
X131462557Y-104237971D01*
X131481553Y-104248124D01*
X131498208Y-104261792D01*
X131511876Y-104278447D01*
X131522029Y-104297443D01*
X131528284Y-104318062D01*
X131531000Y-104345640D01*
X131531000Y-104854360D01*
X131528284Y-104881938D01*
X131522029Y-104902557D01*
X131511876Y-104921553D01*
X131498208Y-104938208D01*
X131481553Y-104951876D01*
X131462557Y-104962029D01*
X131441938Y-104968284D01*
X131414360Y-104971000D01*
X130955640Y-104971000D01*
X130928062Y-104968284D01*
X130907443Y-104962029D01*
X130888447Y-104951876D01*
X130871792Y-104938208D01*
X130858124Y-104921553D01*
X130847971Y-104902557D01*
X130841716Y-104881938D01*
X130839000Y-104854360D01*
X130839000Y-104345640D01*
X130841716Y-104318062D01*
X130847971Y-104297443D01*
X130858124Y-104278447D01*
X130871792Y-104261792D01*
X130888447Y-104248124D01*
X130907443Y-104237971D01*
X130928062Y-104231716D01*
X130955640Y-104229000D01*
X131414360Y-104229000D01*
X131441938Y-104231716D01*
X131441938Y-104231716D01*
G37*
G36*
X120371938Y-103231716D02*
G01*
X120392557Y-103237971D01*
X120411553Y-103248124D01*
X120428208Y-103261792D01*
X120441876Y-103278447D01*
X120452029Y-103297443D01*
X120458284Y-103318062D01*
X120461000Y-103345640D01*
X120461000Y-103854360D01*
X120458284Y-103881938D01*
X120452029Y-103902557D01*
X120441876Y-103921553D01*
X120428208Y-103938208D01*
X120411553Y-103951876D01*
X120392557Y-103962029D01*
X120371938Y-103968284D01*
X120344360Y-103971000D01*
X119885640Y-103971000D01*
X119858062Y-103968284D01*
X119837443Y-103962029D01*
X119818447Y-103951876D01*
X119801792Y-103938208D01*
X119788124Y-103921553D01*
X119777971Y-103902557D01*
X119771716Y-103881938D01*
X119769000Y-103854360D01*
X119769000Y-103345640D01*
X119771716Y-103318062D01*
X119777971Y-103297443D01*
X119788124Y-103278447D01*
X119801792Y-103261792D01*
X119818447Y-103248124D01*
X119837443Y-103237971D01*
X119858062Y-103231716D01*
X119885640Y-103229000D01*
X120344360Y-103229000D01*
X120371938Y-103231716D01*
X120371938Y-103231716D01*
G37*
G36*
X121341938Y-103231716D02*
G01*
X121362557Y-103237971D01*
X121381553Y-103248124D01*
X121398208Y-103261792D01*
X121411876Y-103278447D01*
X121422029Y-103297443D01*
X121428284Y-103318062D01*
X121431000Y-103345640D01*
X121431000Y-103854360D01*
X121428284Y-103881938D01*
X121422029Y-103902557D01*
X121411876Y-103921553D01*
X121398208Y-103938208D01*
X121381553Y-103951876D01*
X121362557Y-103962029D01*
X121341938Y-103968284D01*
X121314360Y-103971000D01*
X120855640Y-103971000D01*
X120828062Y-103968284D01*
X120807443Y-103962029D01*
X120788447Y-103951876D01*
X120771792Y-103938208D01*
X120758124Y-103921553D01*
X120747971Y-103902557D01*
X120741716Y-103881938D01*
X120739000Y-103854360D01*
X120739000Y-103345640D01*
X120741716Y-103318062D01*
X120747971Y-103297443D01*
X120758124Y-103278447D01*
X120771792Y-103261792D01*
X120788447Y-103248124D01*
X120807443Y-103237971D01*
X120828062Y-103231716D01*
X120855640Y-103229000D01*
X121314360Y-103229000D01*
X121341938Y-103231716D01*
X121341938Y-103231716D01*
G37*
G36*
X127871938Y-103131716D02*
G01*
X127892557Y-103137971D01*
X127911553Y-103148124D01*
X127928208Y-103161792D01*
X127941876Y-103178447D01*
X127952029Y-103197443D01*
X127958284Y-103218062D01*
X127961000Y-103245640D01*
X127961000Y-103754360D01*
X127958284Y-103781938D01*
X127952029Y-103802557D01*
X127941876Y-103821553D01*
X127928208Y-103838208D01*
X127911553Y-103851876D01*
X127892557Y-103862029D01*
X127871938Y-103868284D01*
X127844360Y-103871000D01*
X127385640Y-103871000D01*
X127358062Y-103868284D01*
X127337443Y-103862029D01*
X127318447Y-103851876D01*
X127301792Y-103838208D01*
X127288124Y-103821553D01*
X127277971Y-103802557D01*
X127271716Y-103781938D01*
X127269000Y-103754360D01*
X127269000Y-103245640D01*
X127271716Y-103218062D01*
X127277971Y-103197443D01*
X127288124Y-103178447D01*
X127301792Y-103161792D01*
X127318447Y-103148124D01*
X127337443Y-103137971D01*
X127358062Y-103131716D01*
X127385640Y-103129000D01*
X127844360Y-103129000D01*
X127871938Y-103131716D01*
X127871938Y-103131716D01*
G37*
G36*
X128841938Y-103131716D02*
G01*
X128862557Y-103137971D01*
X128881553Y-103148124D01*
X128898208Y-103161792D01*
X128911876Y-103178447D01*
X128922029Y-103197443D01*
X128928284Y-103218062D01*
X128931000Y-103245640D01*
X128931000Y-103754360D01*
X128928284Y-103781938D01*
X128922029Y-103802557D01*
X128911876Y-103821553D01*
X128898208Y-103838208D01*
X128881553Y-103851876D01*
X128862557Y-103862029D01*
X128841938Y-103868284D01*
X128814360Y-103871000D01*
X128355640Y-103871000D01*
X128328062Y-103868284D01*
X128307443Y-103862029D01*
X128288447Y-103851876D01*
X128271792Y-103838208D01*
X128258124Y-103821553D01*
X128247971Y-103802557D01*
X128241716Y-103781938D01*
X128239000Y-103754360D01*
X128239000Y-103245640D01*
X128241716Y-103218062D01*
X128247971Y-103197443D01*
X128258124Y-103178447D01*
X128271792Y-103161792D01*
X128288447Y-103148124D01*
X128307443Y-103137971D01*
X128328062Y-103131716D01*
X128355640Y-103129000D01*
X128814360Y-103129000D01*
X128841938Y-103131716D01*
X128841938Y-103131716D01*
G37*
G36*
X120371938Y-101931716D02*
G01*
X120392557Y-101937971D01*
X120411553Y-101948124D01*
X120428208Y-101961792D01*
X120441876Y-101978447D01*
X120452029Y-101997443D01*
X120458284Y-102018062D01*
X120461000Y-102045640D01*
X120461000Y-102554360D01*
X120458284Y-102581938D01*
X120452029Y-102602557D01*
X120441876Y-102621553D01*
X120428208Y-102638208D01*
X120411553Y-102651876D01*
X120392557Y-102662029D01*
X120371938Y-102668284D01*
X120344360Y-102671000D01*
X119885640Y-102671000D01*
X119858062Y-102668284D01*
X119837443Y-102662029D01*
X119818447Y-102651876D01*
X119801792Y-102638208D01*
X119788124Y-102621553D01*
X119777971Y-102602557D01*
X119771716Y-102581938D01*
X119769000Y-102554360D01*
X119769000Y-102045640D01*
X119771716Y-102018062D01*
X119777971Y-101997443D01*
X119788124Y-101978447D01*
X119801792Y-101961792D01*
X119818447Y-101948124D01*
X119837443Y-101937971D01*
X119858062Y-101931716D01*
X119885640Y-101929000D01*
X120344360Y-101929000D01*
X120371938Y-101931716D01*
X120371938Y-101931716D01*
G37*
G36*
X121341938Y-101931716D02*
G01*
X121362557Y-101937971D01*
X121381553Y-101948124D01*
X121398208Y-101961792D01*
X121411876Y-101978447D01*
X121422029Y-101997443D01*
X121428284Y-102018062D01*
X121431000Y-102045640D01*
X121431000Y-102554360D01*
X121428284Y-102581938D01*
X121422029Y-102602557D01*
X121411876Y-102621553D01*
X121398208Y-102638208D01*
X121381553Y-102651876D01*
X121362557Y-102662029D01*
X121341938Y-102668284D01*
X121314360Y-102671000D01*
X120855640Y-102671000D01*
X120828062Y-102668284D01*
X120807443Y-102662029D01*
X120788447Y-102651876D01*
X120771792Y-102638208D01*
X120758124Y-102621553D01*
X120747971Y-102602557D01*
X120741716Y-102581938D01*
X120739000Y-102554360D01*
X120739000Y-102045640D01*
X120741716Y-102018062D01*
X120747971Y-101997443D01*
X120758124Y-101978447D01*
X120771792Y-101961792D01*
X120788447Y-101948124D01*
X120807443Y-101937971D01*
X120828062Y-101931716D01*
X120855640Y-101929000D01*
X121314360Y-101929000D01*
X121341938Y-101931716D01*
X121341938Y-101931716D01*
G37*
G36*
X124851000Y-102201000D02*
G01*
X123349000Y-102201000D01*
X123349000Y-99799000D01*
X124851000Y-99799000D01*
X124851000Y-102201000D01*
X124851000Y-102201000D01*
G37*
G36*
X129251000Y-102201000D02*
G01*
X127749000Y-102201000D01*
X127749000Y-99799000D01*
X129251000Y-99799000D01*
X129251000Y-102201000D01*
X129251000Y-102201000D01*
G37*
G36*
X130860721Y-100970174D02*
G01*
X130960995Y-101011709D01*
X131000653Y-101038208D01*
X131051242Y-101072010D01*
X131127990Y-101148758D01*
X131127991Y-101148760D01*
X131188291Y-101239005D01*
X131229826Y-101339279D01*
X131251000Y-101445730D01*
X131251000Y-101554270D01*
X131229826Y-101660721D01*
X131188291Y-101760995D01*
X131188290Y-101760996D01*
X131127990Y-101851242D01*
X131051242Y-101927990D01*
X131036304Y-101937971D01*
X130960995Y-101988291D01*
X130860721Y-102029826D01*
X130754270Y-102051000D01*
X130645730Y-102051000D01*
X130539279Y-102029826D01*
X130439005Y-101988291D01*
X130363696Y-101937971D01*
X130348758Y-101927990D01*
X130272010Y-101851242D01*
X130211710Y-101760996D01*
X130211709Y-101760995D01*
X130170174Y-101660721D01*
X130149000Y-101554270D01*
X130149000Y-101445730D01*
X130170174Y-101339279D01*
X130211709Y-101239005D01*
X130272009Y-101148760D01*
X130272010Y-101148758D01*
X130348758Y-101072010D01*
X130399347Y-101038208D01*
X130439005Y-101011709D01*
X130539279Y-100970174D01*
X130645730Y-100949000D01*
X130754270Y-100949000D01*
X130860721Y-100970174D01*
X130860721Y-100970174D01*
G37*
G36*
X121341938Y-100331716D02*
G01*
X121362557Y-100337971D01*
X121381553Y-100348124D01*
X121398208Y-100361792D01*
X121411876Y-100378447D01*
X121422029Y-100397443D01*
X121428284Y-100418062D01*
X121431000Y-100445640D01*
X121431000Y-100954360D01*
X121428284Y-100981938D01*
X121422029Y-101002557D01*
X121411876Y-101021553D01*
X121398208Y-101038208D01*
X121381553Y-101051876D01*
X121362557Y-101062029D01*
X121341938Y-101068284D01*
X121314360Y-101071000D01*
X120855640Y-101071000D01*
X120828062Y-101068284D01*
X120807443Y-101062029D01*
X120788447Y-101051876D01*
X120771792Y-101038208D01*
X120758124Y-101021553D01*
X120747971Y-101002557D01*
X120741716Y-100981938D01*
X120739000Y-100954360D01*
X120739000Y-100445640D01*
X120741716Y-100418062D01*
X120747971Y-100397443D01*
X120758124Y-100378447D01*
X120771792Y-100361792D01*
X120788447Y-100348124D01*
X120807443Y-100337971D01*
X120828062Y-100331716D01*
X120855640Y-100329000D01*
X121314360Y-100329000D01*
X121341938Y-100331716D01*
X121341938Y-100331716D01*
G37*
G36*
X120371938Y-100331716D02*
G01*
X120392557Y-100337971D01*
X120411553Y-100348124D01*
X120428208Y-100361792D01*
X120441876Y-100378447D01*
X120452029Y-100397443D01*
X120458284Y-100418062D01*
X120461000Y-100445640D01*
X120461000Y-100954360D01*
X120458284Y-100981938D01*
X120452029Y-101002557D01*
X120441876Y-101021553D01*
X120428208Y-101038208D01*
X120411553Y-101051876D01*
X120392557Y-101062029D01*
X120371938Y-101068284D01*
X120344360Y-101071000D01*
X119885640Y-101071000D01*
X119858062Y-101068284D01*
X119837443Y-101062029D01*
X119818447Y-101051876D01*
X119801792Y-101038208D01*
X119788124Y-101021553D01*
X119777971Y-101002557D01*
X119771716Y-100981938D01*
X119769000Y-100954360D01*
X119769000Y-100445640D01*
X119771716Y-100418062D01*
X119777971Y-100397443D01*
X119788124Y-100378447D01*
X119801792Y-100361792D01*
X119818447Y-100348124D01*
X119837443Y-100337971D01*
X119858062Y-100331716D01*
X119885640Y-100329000D01*
X120344360Y-100329000D01*
X120371938Y-100331716D01*
X120371938Y-100331716D01*
G37*
G36*
X120371938Y-99031716D02*
G01*
X120392557Y-99037971D01*
X120411553Y-99048124D01*
X120428208Y-99061792D01*
X120441876Y-99078447D01*
X120452029Y-99097443D01*
X120458284Y-99118062D01*
X120461000Y-99145640D01*
X120461000Y-99654360D01*
X120458284Y-99681938D01*
X120452029Y-99702557D01*
X120441876Y-99721553D01*
X120428208Y-99738208D01*
X120411553Y-99751876D01*
X120392557Y-99762029D01*
X120371938Y-99768284D01*
X120344360Y-99771000D01*
X119885640Y-99771000D01*
X119858062Y-99768284D01*
X119837443Y-99762029D01*
X119818447Y-99751876D01*
X119801792Y-99738208D01*
X119788124Y-99721553D01*
X119777971Y-99702557D01*
X119771716Y-99681938D01*
X119769000Y-99654360D01*
X119769000Y-99145640D01*
X119771716Y-99118062D01*
X119777971Y-99097443D01*
X119788124Y-99078447D01*
X119801792Y-99061792D01*
X119818447Y-99048124D01*
X119837443Y-99037971D01*
X119858062Y-99031716D01*
X119885640Y-99029000D01*
X120344360Y-99029000D01*
X120371938Y-99031716D01*
X120371938Y-99031716D01*
G37*
G36*
X121341938Y-99031716D02*
G01*
X121362557Y-99037971D01*
X121381553Y-99048124D01*
X121398208Y-99061792D01*
X121411876Y-99078447D01*
X121422029Y-99097443D01*
X121428284Y-99118062D01*
X121431000Y-99145640D01*
X121431000Y-99654360D01*
X121428284Y-99681938D01*
X121422029Y-99702557D01*
X121411876Y-99721553D01*
X121398208Y-99738208D01*
X121381553Y-99751876D01*
X121362557Y-99762029D01*
X121341938Y-99768284D01*
X121314360Y-99771000D01*
X120855640Y-99771000D01*
X120828062Y-99768284D01*
X120807443Y-99762029D01*
X120788447Y-99751876D01*
X120771792Y-99738208D01*
X120758124Y-99721553D01*
X120747971Y-99702557D01*
X120741716Y-99681938D01*
X120739000Y-99654360D01*
X120739000Y-99145640D01*
X120741716Y-99118062D01*
X120747971Y-99097443D01*
X120758124Y-99078447D01*
X120771792Y-99061792D01*
X120788447Y-99048124D01*
X120807443Y-99037971D01*
X120828062Y-99031716D01*
X120855640Y-99029000D01*
X121314360Y-99029000D01*
X121341938Y-99031716D01*
X121341938Y-99031716D01*
G37*
G36*
X120371938Y-97731716D02*
G01*
X120392557Y-97737971D01*
X120411553Y-97748124D01*
X120428208Y-97761792D01*
X120441876Y-97778447D01*
X120452029Y-97797443D01*
X120458284Y-97818062D01*
X120461000Y-97845640D01*
X120461000Y-98354360D01*
X120458284Y-98381938D01*
X120452029Y-98402557D01*
X120441876Y-98421553D01*
X120428208Y-98438208D01*
X120411553Y-98451876D01*
X120392557Y-98462029D01*
X120371938Y-98468284D01*
X120344360Y-98471000D01*
X119885640Y-98471000D01*
X119858062Y-98468284D01*
X119837443Y-98462029D01*
X119818447Y-98451876D01*
X119801792Y-98438208D01*
X119788124Y-98421553D01*
X119777971Y-98402557D01*
X119771716Y-98381938D01*
X119769000Y-98354360D01*
X119769000Y-97845640D01*
X119771716Y-97818062D01*
X119777971Y-97797443D01*
X119788124Y-97778447D01*
X119801792Y-97761792D01*
X119818447Y-97748124D01*
X119837443Y-97737971D01*
X119858062Y-97731716D01*
X119885640Y-97729000D01*
X120344360Y-97729000D01*
X120371938Y-97731716D01*
X120371938Y-97731716D01*
G37*
G36*
X121341938Y-97731716D02*
G01*
X121362557Y-97737971D01*
X121381553Y-97748124D01*
X121398208Y-97761792D01*
X121411876Y-97778447D01*
X121422029Y-97797443D01*
X121428284Y-97818062D01*
X121431000Y-97845640D01*
X121431000Y-98354360D01*
X121428284Y-98381938D01*
X121422029Y-98402557D01*
X121411876Y-98421553D01*
X121398208Y-98438208D01*
X121381553Y-98451876D01*
X121362557Y-98462029D01*
X121341938Y-98468284D01*
X121314360Y-98471000D01*
X120855640Y-98471000D01*
X120828062Y-98468284D01*
X120807443Y-98462029D01*
X120788447Y-98451876D01*
X120771792Y-98438208D01*
X120758124Y-98421553D01*
X120747971Y-98402557D01*
X120741716Y-98381938D01*
X120739000Y-98354360D01*
X120739000Y-97845640D01*
X120741716Y-97818062D01*
X120747971Y-97797443D01*
X120758124Y-97778447D01*
X120771792Y-97761792D01*
X120788447Y-97748124D01*
X120807443Y-97737971D01*
X120828062Y-97731716D01*
X120855640Y-97729000D01*
X121314360Y-97729000D01*
X121341938Y-97731716D01*
X121341938Y-97731716D01*
G37*
G36*
X118938015Y-94456973D02*
G01*
X119041879Y-94488479D01*
X119069055Y-94503005D01*
X119137600Y-94539643D01*
X119221501Y-94608499D01*
X119290356Y-94692400D01*
X119313764Y-94736193D01*
X119327375Y-94756563D01*
X119344702Y-94773890D01*
X119365076Y-94787504D01*
X119387715Y-94796881D01*
X119411748Y-94801662D01*
X119436252Y-94801662D01*
X119460286Y-94796882D01*
X119482924Y-94787505D01*
X119503299Y-94773891D01*
X119520626Y-94756564D01*
X119534240Y-94736190D01*
X119543617Y-94713551D01*
X119548398Y-94689518D01*
X119549000Y-94677265D01*
X119549000Y-94449000D01*
X120651000Y-94449000D01*
X120651000Y-95551000D01*
X119549000Y-95551000D01*
X119549000Y-95322735D01*
X119546598Y-95298349D01*
X119539485Y-95274900D01*
X119527934Y-95253289D01*
X119512389Y-95234347D01*
X119493447Y-95218802D01*
X119471836Y-95207251D01*
X119448387Y-95200138D01*
X119424001Y-95197736D01*
X119399615Y-95200138D01*
X119376166Y-95207251D01*
X119354555Y-95218802D01*
X119335613Y-95234347D01*
X119320068Y-95253289D01*
X119313767Y-95263802D01*
X119290356Y-95307600D01*
X119290355Y-95307601D01*
X119221501Y-95391501D01*
X119137600Y-95460357D01*
X119069055Y-95496995D01*
X119041879Y-95511521D01*
X118938015Y-95543027D01*
X118857067Y-95551000D01*
X118802933Y-95551000D01*
X118721985Y-95543027D01*
X118618121Y-95511521D01*
X118590945Y-95496995D01*
X118522400Y-95460357D01*
X118438499Y-95391501D01*
X118369643Y-95307600D01*
X118330489Y-95234347D01*
X118318479Y-95211879D01*
X118286973Y-95108015D01*
X118276334Y-95000000D01*
X118286973Y-94891985D01*
X118318479Y-94788121D01*
X118358338Y-94713551D01*
X118369643Y-94692400D01*
X118438499Y-94608499D01*
X118522400Y-94539643D01*
X118590945Y-94503005D01*
X118618121Y-94488479D01*
X118721985Y-94456973D01*
X118802933Y-94449000D01*
X118857067Y-94449000D01*
X118938015Y-94456973D01*
X118938015Y-94456973D01*
G37*
M02*
