G04 #@! TF.GenerationSoftware,KiCad,Pcbnew,(5.1.2)-1*
G04 #@! TF.CreationDate,2026-09-02T20:34:07+09:00*
G04 #@! TF.ProjectId,um,756d2e6b-6963-4616-945f-706362585858,v1.0*
G04 #@! TF.SameCoordinates,Original*
G04 #@! TF.FileFunction,Paste,Bot*
G04 #@! TF.FilePolarity,Positive*
%FSLAX46Y46*%
G04 Gerber Fmt 4.6, Leading zero omitted, Abs format (unit mm)*
G04 Created by KiCad (PCBNEW (5.1.2)-1) date 2026-09-02 20:34:07*
%MOMM*%
%LPD*%
G04 APERTURE LIST*
%ADD10R,1.400000X0.300000*%
%ADD11C,0.100000*%
%ADD12C,0.590000*%
%ADD13C,0.875000*%
G04 APERTURE END LIST*
D10*
X124100000Y-100000000D03*
X124100000Y-100500000D03*
X124100000Y-101000000D03*
X124100000Y-101500000D03*
X124100000Y-102000000D03*
X128500000Y-102000000D03*
X128500000Y-101500000D03*
X128500000Y-101000000D03*
X128500000Y-100500000D03*
X128500000Y-100000000D03*
D11*
G36*
X120276958Y-103280710D02*
G01*
X120291276Y-103282834D01*
X120305317Y-103286351D01*
X120318946Y-103291228D01*
X120332031Y-103297417D01*
X120344447Y-103304858D01*
X120356073Y-103313481D01*
X120366798Y-103323202D01*
X120376519Y-103333927D01*
X120385142Y-103345553D01*
X120392583Y-103357969D01*
X120398772Y-103371054D01*
X120403649Y-103384683D01*
X120407166Y-103398724D01*
X120409290Y-103413042D01*
X120410000Y-103427500D01*
X120410000Y-103772500D01*
X120409290Y-103786958D01*
X120407166Y-103801276D01*
X120403649Y-103815317D01*
X120398772Y-103828946D01*
X120392583Y-103842031D01*
X120385142Y-103854447D01*
X120376519Y-103866073D01*
X120366798Y-103876798D01*
X120356073Y-103886519D01*
X120344447Y-103895142D01*
X120332031Y-103902583D01*
X120318946Y-103908772D01*
X120305317Y-103913649D01*
X120291276Y-103917166D01*
X120276958Y-103919290D01*
X120262500Y-103920000D01*
X119967500Y-103920000D01*
X119953042Y-103919290D01*
X119938724Y-103917166D01*
X119924683Y-103913649D01*
X119911054Y-103908772D01*
X119897969Y-103902583D01*
X119885553Y-103895142D01*
X119873927Y-103886519D01*
X119863202Y-103876798D01*
X119853481Y-103866073D01*
X119844858Y-103854447D01*
X119837417Y-103842031D01*
X119831228Y-103828946D01*
X119826351Y-103815317D01*
X119822834Y-103801276D01*
X119820710Y-103786958D01*
X119820000Y-103772500D01*
X119820000Y-103427500D01*
X119820710Y-103413042D01*
X119822834Y-103398724D01*
X119826351Y-103384683D01*
X119831228Y-103371054D01*
X119837417Y-103357969D01*
X119844858Y-103345553D01*
X119853481Y-103333927D01*
X119863202Y-103323202D01*
X119873927Y-103313481D01*
X119885553Y-103304858D01*
X119897969Y-103297417D01*
X119911054Y-103291228D01*
X119924683Y-103286351D01*
X119938724Y-103282834D01*
X119953042Y-103280710D01*
X119967500Y-103280000D01*
X120262500Y-103280000D01*
X120276958Y-103280710D01*
X120276958Y-103280710D01*
G37*
D12*
X120115000Y-103600000D03*
D11*
G36*
X121246958Y-103280710D02*
G01*
X121261276Y-103282834D01*
X121275317Y-103286351D01*
X121288946Y-103291228D01*
X121302031Y-103297417D01*
X121314447Y-103304858D01*
X121326073Y-103313481D01*
X121336798Y-103323202D01*
X121346519Y-103333927D01*
X121355142Y-103345553D01*
X121362583Y-103357969D01*
X121368772Y-103371054D01*
X121373649Y-103384683D01*
X121377166Y-103398724D01*
X121379290Y-103413042D01*
X121380000Y-103427500D01*
X121380000Y-103772500D01*
X121379290Y-103786958D01*
X121377166Y-103801276D01*
X121373649Y-103815317D01*
X121368772Y-103828946D01*
X121362583Y-103842031D01*
X121355142Y-103854447D01*
X121346519Y-103866073D01*
X121336798Y-103876798D01*
X121326073Y-103886519D01*
X121314447Y-103895142D01*
X121302031Y-103902583D01*
X121288946Y-103908772D01*
X121275317Y-103913649D01*
X121261276Y-103917166D01*
X121246958Y-103919290D01*
X121232500Y-103920000D01*
X120937500Y-103920000D01*
X120923042Y-103919290D01*
X120908724Y-103917166D01*
X120894683Y-103913649D01*
X120881054Y-103908772D01*
X120867969Y-103902583D01*
X120855553Y-103895142D01*
X120843927Y-103886519D01*
X120833202Y-103876798D01*
X120823481Y-103866073D01*
X120814858Y-103854447D01*
X120807417Y-103842031D01*
X120801228Y-103828946D01*
X120796351Y-103815317D01*
X120792834Y-103801276D01*
X120790710Y-103786958D01*
X120790000Y-103772500D01*
X120790000Y-103427500D01*
X120790710Y-103413042D01*
X120792834Y-103398724D01*
X120796351Y-103384683D01*
X120801228Y-103371054D01*
X120807417Y-103357969D01*
X120814858Y-103345553D01*
X120823481Y-103333927D01*
X120833202Y-103323202D01*
X120843927Y-103313481D01*
X120855553Y-103304858D01*
X120867969Y-103297417D01*
X120881054Y-103291228D01*
X120894683Y-103286351D01*
X120908724Y-103282834D01*
X120923042Y-103280710D01*
X120937500Y-103280000D01*
X121232500Y-103280000D01*
X121246958Y-103280710D01*
X121246958Y-103280710D01*
G37*
D12*
X121085000Y-103600000D03*
D11*
G36*
X120276958Y-104580710D02*
G01*
X120291276Y-104582834D01*
X120305317Y-104586351D01*
X120318946Y-104591228D01*
X120332031Y-104597417D01*
X120344447Y-104604858D01*
X120356073Y-104613481D01*
X120366798Y-104623202D01*
X120376519Y-104633927D01*
X120385142Y-104645553D01*
X120392583Y-104657969D01*
X120398772Y-104671054D01*
X120403649Y-104684683D01*
X120407166Y-104698724D01*
X120409290Y-104713042D01*
X120410000Y-104727500D01*
X120410000Y-105072500D01*
X120409290Y-105086958D01*
X120407166Y-105101276D01*
X120403649Y-105115317D01*
X120398772Y-105128946D01*
X120392583Y-105142031D01*
X120385142Y-105154447D01*
X120376519Y-105166073D01*
X120366798Y-105176798D01*
X120356073Y-105186519D01*
X120344447Y-105195142D01*
X120332031Y-105202583D01*
X120318946Y-105208772D01*
X120305317Y-105213649D01*
X120291276Y-105217166D01*
X120276958Y-105219290D01*
X120262500Y-105220000D01*
X119967500Y-105220000D01*
X119953042Y-105219290D01*
X119938724Y-105217166D01*
X119924683Y-105213649D01*
X119911054Y-105208772D01*
X119897969Y-105202583D01*
X119885553Y-105195142D01*
X119873927Y-105186519D01*
X119863202Y-105176798D01*
X119853481Y-105166073D01*
X119844858Y-105154447D01*
X119837417Y-105142031D01*
X119831228Y-105128946D01*
X119826351Y-105115317D01*
X119822834Y-105101276D01*
X119820710Y-105086958D01*
X119820000Y-105072500D01*
X119820000Y-104727500D01*
X119820710Y-104713042D01*
X119822834Y-104698724D01*
X119826351Y-104684683D01*
X119831228Y-104671054D01*
X119837417Y-104657969D01*
X119844858Y-104645553D01*
X119853481Y-104633927D01*
X119863202Y-104623202D01*
X119873927Y-104613481D01*
X119885553Y-104604858D01*
X119897969Y-104597417D01*
X119911054Y-104591228D01*
X119924683Y-104586351D01*
X119938724Y-104582834D01*
X119953042Y-104580710D01*
X119967500Y-104580000D01*
X120262500Y-104580000D01*
X120276958Y-104580710D01*
X120276958Y-104580710D01*
G37*
D12*
X120115000Y-104900000D03*
D11*
G36*
X121246958Y-104580710D02*
G01*
X121261276Y-104582834D01*
X121275317Y-104586351D01*
X121288946Y-104591228D01*
X121302031Y-104597417D01*
X121314447Y-104604858D01*
X121326073Y-104613481D01*
X121336798Y-104623202D01*
X121346519Y-104633927D01*
X121355142Y-104645553D01*
X121362583Y-104657969D01*
X121368772Y-104671054D01*
X121373649Y-104684683D01*
X121377166Y-104698724D01*
X121379290Y-104713042D01*
X121380000Y-104727500D01*
X121380000Y-105072500D01*
X121379290Y-105086958D01*
X121377166Y-105101276D01*
X121373649Y-105115317D01*
X121368772Y-105128946D01*
X121362583Y-105142031D01*
X121355142Y-105154447D01*
X121346519Y-105166073D01*
X121336798Y-105176798D01*
X121326073Y-105186519D01*
X121314447Y-105195142D01*
X121302031Y-105202583D01*
X121288946Y-105208772D01*
X121275317Y-105213649D01*
X121261276Y-105217166D01*
X121246958Y-105219290D01*
X121232500Y-105220000D01*
X120937500Y-105220000D01*
X120923042Y-105219290D01*
X120908724Y-105217166D01*
X120894683Y-105213649D01*
X120881054Y-105208772D01*
X120867969Y-105202583D01*
X120855553Y-105195142D01*
X120843927Y-105186519D01*
X120833202Y-105176798D01*
X120823481Y-105166073D01*
X120814858Y-105154447D01*
X120807417Y-105142031D01*
X120801228Y-105128946D01*
X120796351Y-105115317D01*
X120792834Y-105101276D01*
X120790710Y-105086958D01*
X120790000Y-105072500D01*
X120790000Y-104727500D01*
X120790710Y-104713042D01*
X120792834Y-104698724D01*
X120796351Y-104684683D01*
X120801228Y-104671054D01*
X120807417Y-104657969D01*
X120814858Y-104645553D01*
X120823481Y-104633927D01*
X120833202Y-104623202D01*
X120843927Y-104613481D01*
X120855553Y-104604858D01*
X120867969Y-104597417D01*
X120881054Y-104591228D01*
X120894683Y-104586351D01*
X120908724Y-104582834D01*
X120923042Y-104580710D01*
X120937500Y-104580000D01*
X121232500Y-104580000D01*
X121246958Y-104580710D01*
X121246958Y-104580710D01*
G37*
D12*
X121085000Y-104900000D03*
D11*
G36*
X120276958Y-101980710D02*
G01*
X120291276Y-101982834D01*
X120305317Y-101986351D01*
X120318946Y-101991228D01*
X120332031Y-101997417D01*
X120344447Y-102004858D01*
X120356073Y-102013481D01*
X120366798Y-102023202D01*
X120376519Y-102033927D01*
X120385142Y-102045553D01*
X120392583Y-102057969D01*
X120398772Y-102071054D01*
X120403649Y-102084683D01*
X120407166Y-102098724D01*
X120409290Y-102113042D01*
X120410000Y-102127500D01*
X120410000Y-102472500D01*
X120409290Y-102486958D01*
X120407166Y-102501276D01*
X120403649Y-102515317D01*
X120398772Y-102528946D01*
X120392583Y-102542031D01*
X120385142Y-102554447D01*
X120376519Y-102566073D01*
X120366798Y-102576798D01*
X120356073Y-102586519D01*
X120344447Y-102595142D01*
X120332031Y-102602583D01*
X120318946Y-102608772D01*
X120305317Y-102613649D01*
X120291276Y-102617166D01*
X120276958Y-102619290D01*
X120262500Y-102620000D01*
X119967500Y-102620000D01*
X119953042Y-102619290D01*
X119938724Y-102617166D01*
X119924683Y-102613649D01*
X119911054Y-102608772D01*
X119897969Y-102602583D01*
X119885553Y-102595142D01*
X119873927Y-102586519D01*
X119863202Y-102576798D01*
X119853481Y-102566073D01*
X119844858Y-102554447D01*
X119837417Y-102542031D01*
X119831228Y-102528946D01*
X119826351Y-102515317D01*
X119822834Y-102501276D01*
X119820710Y-102486958D01*
X119820000Y-102472500D01*
X119820000Y-102127500D01*
X119820710Y-102113042D01*
X119822834Y-102098724D01*
X119826351Y-102084683D01*
X119831228Y-102071054D01*
X119837417Y-102057969D01*
X119844858Y-102045553D01*
X119853481Y-102033927D01*
X119863202Y-102023202D01*
X119873927Y-102013481D01*
X119885553Y-102004858D01*
X119897969Y-101997417D01*
X119911054Y-101991228D01*
X119924683Y-101986351D01*
X119938724Y-101982834D01*
X119953042Y-101980710D01*
X119967500Y-101980000D01*
X120262500Y-101980000D01*
X120276958Y-101980710D01*
X120276958Y-101980710D01*
G37*
D12*
X120115000Y-102300000D03*
D11*
G36*
X121246958Y-101980710D02*
G01*
X121261276Y-101982834D01*
X121275317Y-101986351D01*
X121288946Y-101991228D01*
X121302031Y-101997417D01*
X121314447Y-102004858D01*
X121326073Y-102013481D01*
X121336798Y-102023202D01*
X121346519Y-102033927D01*
X121355142Y-102045553D01*
X121362583Y-102057969D01*
X121368772Y-102071054D01*
X121373649Y-102084683D01*
X121377166Y-102098724D01*
X121379290Y-102113042D01*
X121380000Y-102127500D01*
X121380000Y-102472500D01*
X121379290Y-102486958D01*
X121377166Y-102501276D01*
X121373649Y-102515317D01*
X121368772Y-102528946D01*
X121362583Y-102542031D01*
X121355142Y-102554447D01*
X121346519Y-102566073D01*
X121336798Y-102576798D01*
X121326073Y-102586519D01*
X121314447Y-102595142D01*
X121302031Y-102602583D01*
X121288946Y-102608772D01*
X121275317Y-102613649D01*
X121261276Y-102617166D01*
X121246958Y-102619290D01*
X121232500Y-102620000D01*
X120937500Y-102620000D01*
X120923042Y-102619290D01*
X120908724Y-102617166D01*
X120894683Y-102613649D01*
X120881054Y-102608772D01*
X120867969Y-102602583D01*
X120855553Y-102595142D01*
X120843927Y-102586519D01*
X120833202Y-102576798D01*
X120823481Y-102566073D01*
X120814858Y-102554447D01*
X120807417Y-102542031D01*
X120801228Y-102528946D01*
X120796351Y-102515317D01*
X120792834Y-102501276D01*
X120790710Y-102486958D01*
X120790000Y-102472500D01*
X120790000Y-102127500D01*
X120790710Y-102113042D01*
X120792834Y-102098724D01*
X120796351Y-102084683D01*
X120801228Y-102071054D01*
X120807417Y-102057969D01*
X120814858Y-102045553D01*
X120823481Y-102033927D01*
X120833202Y-102023202D01*
X120843927Y-102013481D01*
X120855553Y-102004858D01*
X120867969Y-101997417D01*
X120881054Y-101991228D01*
X120894683Y-101986351D01*
X120908724Y-101982834D01*
X120923042Y-101980710D01*
X120937500Y-101980000D01*
X121232500Y-101980000D01*
X121246958Y-101980710D01*
X121246958Y-101980710D01*
G37*
D12*
X121085000Y-102300000D03*
D11*
G36*
X127776958Y-103180710D02*
G01*
X127791276Y-103182834D01*
X127805317Y-103186351D01*
X127818946Y-103191228D01*
X127832031Y-103197417D01*
X127844447Y-103204858D01*
X127856073Y-103213481D01*
X127866798Y-103223202D01*
X127876519Y-103233927D01*
X127885142Y-103245553D01*
X127892583Y-103257969D01*
X127898772Y-103271054D01*
X127903649Y-103284683D01*
X127907166Y-103298724D01*
X127909290Y-103313042D01*
X127910000Y-103327500D01*
X127910000Y-103672500D01*
X127909290Y-103686958D01*
X127907166Y-103701276D01*
X127903649Y-103715317D01*
X127898772Y-103728946D01*
X127892583Y-103742031D01*
X127885142Y-103754447D01*
X127876519Y-103766073D01*
X127866798Y-103776798D01*
X127856073Y-103786519D01*
X127844447Y-103795142D01*
X127832031Y-103802583D01*
X127818946Y-103808772D01*
X127805317Y-103813649D01*
X127791276Y-103817166D01*
X127776958Y-103819290D01*
X127762500Y-103820000D01*
X127467500Y-103820000D01*
X127453042Y-103819290D01*
X127438724Y-103817166D01*
X127424683Y-103813649D01*
X127411054Y-103808772D01*
X127397969Y-103802583D01*
X127385553Y-103795142D01*
X127373927Y-103786519D01*
X127363202Y-103776798D01*
X127353481Y-103766073D01*
X127344858Y-103754447D01*
X127337417Y-103742031D01*
X127331228Y-103728946D01*
X127326351Y-103715317D01*
X127322834Y-103701276D01*
X127320710Y-103686958D01*
X127320000Y-103672500D01*
X127320000Y-103327500D01*
X127320710Y-103313042D01*
X127322834Y-103298724D01*
X127326351Y-103284683D01*
X127331228Y-103271054D01*
X127337417Y-103257969D01*
X127344858Y-103245553D01*
X127353481Y-103233927D01*
X127363202Y-103223202D01*
X127373927Y-103213481D01*
X127385553Y-103204858D01*
X127397969Y-103197417D01*
X127411054Y-103191228D01*
X127424683Y-103186351D01*
X127438724Y-103182834D01*
X127453042Y-103180710D01*
X127467500Y-103180000D01*
X127762500Y-103180000D01*
X127776958Y-103180710D01*
X127776958Y-103180710D01*
G37*
D12*
X127615000Y-103500000D03*
D11*
G36*
X128746958Y-103180710D02*
G01*
X128761276Y-103182834D01*
X128775317Y-103186351D01*
X128788946Y-103191228D01*
X128802031Y-103197417D01*
X128814447Y-103204858D01*
X128826073Y-103213481D01*
X128836798Y-103223202D01*
X128846519Y-103233927D01*
X128855142Y-103245553D01*
X128862583Y-103257969D01*
X128868772Y-103271054D01*
X128873649Y-103284683D01*
X128877166Y-103298724D01*
X128879290Y-103313042D01*
X128880000Y-103327500D01*
X128880000Y-103672500D01*
X128879290Y-103686958D01*
X128877166Y-103701276D01*
X128873649Y-103715317D01*
X128868772Y-103728946D01*
X128862583Y-103742031D01*
X128855142Y-103754447D01*
X128846519Y-103766073D01*
X128836798Y-103776798D01*
X128826073Y-103786519D01*
X128814447Y-103795142D01*
X128802031Y-103802583D01*
X128788946Y-103808772D01*
X128775317Y-103813649D01*
X128761276Y-103817166D01*
X128746958Y-103819290D01*
X128732500Y-103820000D01*
X128437500Y-103820000D01*
X128423042Y-103819290D01*
X128408724Y-103817166D01*
X128394683Y-103813649D01*
X128381054Y-103808772D01*
X128367969Y-103802583D01*
X128355553Y-103795142D01*
X128343927Y-103786519D01*
X128333202Y-103776798D01*
X128323481Y-103766073D01*
X128314858Y-103754447D01*
X128307417Y-103742031D01*
X128301228Y-103728946D01*
X128296351Y-103715317D01*
X128292834Y-103701276D01*
X128290710Y-103686958D01*
X128290000Y-103672500D01*
X128290000Y-103327500D01*
X128290710Y-103313042D01*
X128292834Y-103298724D01*
X128296351Y-103284683D01*
X128301228Y-103271054D01*
X128307417Y-103257969D01*
X128314858Y-103245553D01*
X128323481Y-103233927D01*
X128333202Y-103223202D01*
X128343927Y-103213481D01*
X128355553Y-103204858D01*
X128367969Y-103197417D01*
X128381054Y-103191228D01*
X128394683Y-103186351D01*
X128408724Y-103182834D01*
X128423042Y-103180710D01*
X128437500Y-103180000D01*
X128732500Y-103180000D01*
X128746958Y-103180710D01*
X128746958Y-103180710D01*
G37*
D12*
X128585000Y-103500000D03*
D11*
G36*
X120276958Y-97780710D02*
G01*
X120291276Y-97782834D01*
X120305317Y-97786351D01*
X120318946Y-97791228D01*
X120332031Y-97797417D01*
X120344447Y-97804858D01*
X120356073Y-97813481D01*
X120366798Y-97823202D01*
X120376519Y-97833927D01*
X120385142Y-97845553D01*
X120392583Y-97857969D01*
X120398772Y-97871054D01*
X120403649Y-97884683D01*
X120407166Y-97898724D01*
X120409290Y-97913042D01*
X120410000Y-97927500D01*
X120410000Y-98272500D01*
X120409290Y-98286958D01*
X120407166Y-98301276D01*
X120403649Y-98315317D01*
X120398772Y-98328946D01*
X120392583Y-98342031D01*
X120385142Y-98354447D01*
X120376519Y-98366073D01*
X120366798Y-98376798D01*
X120356073Y-98386519D01*
X120344447Y-98395142D01*
X120332031Y-98402583D01*
X120318946Y-98408772D01*
X120305317Y-98413649D01*
X120291276Y-98417166D01*
X120276958Y-98419290D01*
X120262500Y-98420000D01*
X119967500Y-98420000D01*
X119953042Y-98419290D01*
X119938724Y-98417166D01*
X119924683Y-98413649D01*
X119911054Y-98408772D01*
X119897969Y-98402583D01*
X119885553Y-98395142D01*
X119873927Y-98386519D01*
X119863202Y-98376798D01*
X119853481Y-98366073D01*
X119844858Y-98354447D01*
X119837417Y-98342031D01*
X119831228Y-98328946D01*
X119826351Y-98315317D01*
X119822834Y-98301276D01*
X119820710Y-98286958D01*
X119820000Y-98272500D01*
X119820000Y-97927500D01*
X119820710Y-97913042D01*
X119822834Y-97898724D01*
X119826351Y-97884683D01*
X119831228Y-97871054D01*
X119837417Y-97857969D01*
X119844858Y-97845553D01*
X119853481Y-97833927D01*
X119863202Y-97823202D01*
X119873927Y-97813481D01*
X119885553Y-97804858D01*
X119897969Y-97797417D01*
X119911054Y-97791228D01*
X119924683Y-97786351D01*
X119938724Y-97782834D01*
X119953042Y-97780710D01*
X119967500Y-97780000D01*
X120262500Y-97780000D01*
X120276958Y-97780710D01*
X120276958Y-97780710D01*
G37*
D12*
X120115000Y-98100000D03*
D11*
G36*
X121246958Y-97780710D02*
G01*
X121261276Y-97782834D01*
X121275317Y-97786351D01*
X121288946Y-97791228D01*
X121302031Y-97797417D01*
X121314447Y-97804858D01*
X121326073Y-97813481D01*
X121336798Y-97823202D01*
X121346519Y-97833927D01*
X121355142Y-97845553D01*
X121362583Y-97857969D01*
X121368772Y-97871054D01*
X121373649Y-97884683D01*
X121377166Y-97898724D01*
X121379290Y-97913042D01*
X121380000Y-97927500D01*
X121380000Y-98272500D01*
X121379290Y-98286958D01*
X121377166Y-98301276D01*
X121373649Y-98315317D01*
X121368772Y-98328946D01*
X121362583Y-98342031D01*
X121355142Y-98354447D01*
X121346519Y-98366073D01*
X121336798Y-98376798D01*
X121326073Y-98386519D01*
X121314447Y-98395142D01*
X121302031Y-98402583D01*
X121288946Y-98408772D01*
X121275317Y-98413649D01*
X121261276Y-98417166D01*
X121246958Y-98419290D01*
X121232500Y-98420000D01*
X120937500Y-98420000D01*
X120923042Y-98419290D01*
X120908724Y-98417166D01*
X120894683Y-98413649D01*
X120881054Y-98408772D01*
X120867969Y-98402583D01*
X120855553Y-98395142D01*
X120843927Y-98386519D01*
X120833202Y-98376798D01*
X120823481Y-98366073D01*
X120814858Y-98354447D01*
X120807417Y-98342031D01*
X120801228Y-98328946D01*
X120796351Y-98315317D01*
X120792834Y-98301276D01*
X120790710Y-98286958D01*
X120790000Y-98272500D01*
X120790000Y-97927500D01*
X120790710Y-97913042D01*
X120792834Y-97898724D01*
X120796351Y-97884683D01*
X120801228Y-97871054D01*
X120807417Y-97857969D01*
X120814858Y-97845553D01*
X120823481Y-97833927D01*
X120833202Y-97823202D01*
X120843927Y-97813481D01*
X120855553Y-97804858D01*
X120867969Y-97797417D01*
X120881054Y-97791228D01*
X120894683Y-97786351D01*
X120908724Y-97782834D01*
X120923042Y-97780710D01*
X120937500Y-97780000D01*
X121232500Y-97780000D01*
X121246958Y-97780710D01*
X121246958Y-97780710D01*
G37*
D12*
X121085000Y-98100000D03*
D11*
G36*
X131346958Y-104280710D02*
G01*
X131361276Y-104282834D01*
X131375317Y-104286351D01*
X131388946Y-104291228D01*
X131402031Y-104297417D01*
X131414447Y-104304858D01*
X131426073Y-104313481D01*
X131436798Y-104323202D01*
X131446519Y-104333927D01*
X131455142Y-104345553D01*
X131462583Y-104357969D01*
X131468772Y-104371054D01*
X131473649Y-104384683D01*
X131477166Y-104398724D01*
X131479290Y-104413042D01*
X131480000Y-104427500D01*
X131480000Y-104772500D01*
X131479290Y-104786958D01*
X131477166Y-104801276D01*
X131473649Y-104815317D01*
X131468772Y-104828946D01*
X131462583Y-104842031D01*
X131455142Y-104854447D01*
X131446519Y-104866073D01*
X131436798Y-104876798D01*
X131426073Y-104886519D01*
X131414447Y-104895142D01*
X131402031Y-104902583D01*
X131388946Y-104908772D01*
X131375317Y-104913649D01*
X131361276Y-104917166D01*
X131346958Y-104919290D01*
X131332500Y-104920000D01*
X131037500Y-104920000D01*
X131023042Y-104919290D01*
X131008724Y-104917166D01*
X130994683Y-104913649D01*
X130981054Y-104908772D01*
X130967969Y-104902583D01*
X130955553Y-104895142D01*
X130943927Y-104886519D01*
X130933202Y-104876798D01*
X130923481Y-104866073D01*
X130914858Y-104854447D01*
X130907417Y-104842031D01*
X130901228Y-104828946D01*
X130896351Y-104815317D01*
X130892834Y-104801276D01*
X130890710Y-104786958D01*
X130890000Y-104772500D01*
X130890000Y-104427500D01*
X130890710Y-104413042D01*
X130892834Y-104398724D01*
X130896351Y-104384683D01*
X130901228Y-104371054D01*
X130907417Y-104357969D01*
X130914858Y-104345553D01*
X130923481Y-104333927D01*
X130933202Y-104323202D01*
X130943927Y-104313481D01*
X130955553Y-104304858D01*
X130967969Y-104297417D01*
X130981054Y-104291228D01*
X130994683Y-104286351D01*
X131008724Y-104282834D01*
X131023042Y-104280710D01*
X131037500Y-104280000D01*
X131332500Y-104280000D01*
X131346958Y-104280710D01*
X131346958Y-104280710D01*
G37*
D12*
X131185000Y-104600000D03*
D11*
G36*
X130376958Y-104280710D02*
G01*
X130391276Y-104282834D01*
X130405317Y-104286351D01*
X130418946Y-104291228D01*
X130432031Y-104297417D01*
X130444447Y-104304858D01*
X130456073Y-104313481D01*
X130466798Y-104323202D01*
X130476519Y-104333927D01*
X130485142Y-104345553D01*
X130492583Y-104357969D01*
X130498772Y-104371054D01*
X130503649Y-104384683D01*
X130507166Y-104398724D01*
X130509290Y-104413042D01*
X130510000Y-104427500D01*
X130510000Y-104772500D01*
X130509290Y-104786958D01*
X130507166Y-104801276D01*
X130503649Y-104815317D01*
X130498772Y-104828946D01*
X130492583Y-104842031D01*
X130485142Y-104854447D01*
X130476519Y-104866073D01*
X130466798Y-104876798D01*
X130456073Y-104886519D01*
X130444447Y-104895142D01*
X130432031Y-104902583D01*
X130418946Y-104908772D01*
X130405317Y-104913649D01*
X130391276Y-104917166D01*
X130376958Y-104919290D01*
X130362500Y-104920000D01*
X130067500Y-104920000D01*
X130053042Y-104919290D01*
X130038724Y-104917166D01*
X130024683Y-104913649D01*
X130011054Y-104908772D01*
X129997969Y-104902583D01*
X129985553Y-104895142D01*
X129973927Y-104886519D01*
X129963202Y-104876798D01*
X129953481Y-104866073D01*
X129944858Y-104854447D01*
X129937417Y-104842031D01*
X129931228Y-104828946D01*
X129926351Y-104815317D01*
X129922834Y-104801276D01*
X129920710Y-104786958D01*
X129920000Y-104772500D01*
X129920000Y-104427500D01*
X129920710Y-104413042D01*
X129922834Y-104398724D01*
X129926351Y-104384683D01*
X129931228Y-104371054D01*
X129937417Y-104357969D01*
X129944858Y-104345553D01*
X129953481Y-104333927D01*
X129963202Y-104323202D01*
X129973927Y-104313481D01*
X129985553Y-104304858D01*
X129997969Y-104297417D01*
X130011054Y-104291228D01*
X130024683Y-104286351D01*
X130038724Y-104282834D01*
X130053042Y-104280710D01*
X130067500Y-104280000D01*
X130362500Y-104280000D01*
X130376958Y-104280710D01*
X130376958Y-104280710D01*
G37*
D12*
X130215000Y-104600000D03*
D11*
G36*
X119152691Y-106026053D02*
G01*
X119173926Y-106029203D01*
X119194750Y-106034419D01*
X119214962Y-106041651D01*
X119234368Y-106050830D01*
X119252781Y-106061866D01*
X119270024Y-106074654D01*
X119285930Y-106089070D01*
X119300346Y-106104976D01*
X119313134Y-106122219D01*
X119324170Y-106140632D01*
X119333349Y-106160038D01*
X119340581Y-106180250D01*
X119345797Y-106201074D01*
X119348947Y-106222309D01*
X119350000Y-106243750D01*
X119350000Y-106756250D01*
X119348947Y-106777691D01*
X119345797Y-106798926D01*
X119340581Y-106819750D01*
X119333349Y-106839962D01*
X119324170Y-106859368D01*
X119313134Y-106877781D01*
X119300346Y-106895024D01*
X119285930Y-106910930D01*
X119270024Y-106925346D01*
X119252781Y-106938134D01*
X119234368Y-106949170D01*
X119214962Y-106958349D01*
X119194750Y-106965581D01*
X119173926Y-106970797D01*
X119152691Y-106973947D01*
X119131250Y-106975000D01*
X118693750Y-106975000D01*
X118672309Y-106973947D01*
X118651074Y-106970797D01*
X118630250Y-106965581D01*
X118610038Y-106958349D01*
X118590632Y-106949170D01*
X118572219Y-106938134D01*
X118554976Y-106925346D01*
X118539070Y-106910930D01*
X118524654Y-106895024D01*
X118511866Y-106877781D01*
X118500830Y-106859368D01*
X118491651Y-106839962D01*
X118484419Y-106819750D01*
X118479203Y-106798926D01*
X118476053Y-106777691D01*
X118475000Y-106756250D01*
X118475000Y-106243750D01*
X118476053Y-106222309D01*
X118479203Y-106201074D01*
X118484419Y-106180250D01*
X118491651Y-106160038D01*
X118500830Y-106140632D01*
X118511866Y-106122219D01*
X118524654Y-106104976D01*
X118539070Y-106089070D01*
X118554976Y-106074654D01*
X118572219Y-106061866D01*
X118590632Y-106050830D01*
X118610038Y-106041651D01*
X118630250Y-106034419D01*
X118651074Y-106029203D01*
X118672309Y-106026053D01*
X118693750Y-106025000D01*
X119131250Y-106025000D01*
X119152691Y-106026053D01*
X119152691Y-106026053D01*
G37*
D13*
X118912500Y-106500000D03*
D11*
G36*
X120727691Y-106026053D02*
G01*
X120748926Y-106029203D01*
X120769750Y-106034419D01*
X120789962Y-106041651D01*
X120809368Y-106050830D01*
X120827781Y-106061866D01*
X120845024Y-106074654D01*
X120860930Y-106089070D01*
X120875346Y-106104976D01*
X120888134Y-106122219D01*
X120899170Y-106140632D01*
X120908349Y-106160038D01*
X120915581Y-106180250D01*
X120920797Y-106201074D01*
X120923947Y-106222309D01*
X120925000Y-106243750D01*
X120925000Y-106756250D01*
X120923947Y-106777691D01*
X120920797Y-106798926D01*
X120915581Y-106819750D01*
X120908349Y-106839962D01*
X120899170Y-106859368D01*
X120888134Y-106877781D01*
X120875346Y-106895024D01*
X120860930Y-106910930D01*
X120845024Y-106925346D01*
X120827781Y-106938134D01*
X120809368Y-106949170D01*
X120789962Y-106958349D01*
X120769750Y-106965581D01*
X120748926Y-106970797D01*
X120727691Y-106973947D01*
X120706250Y-106975000D01*
X120268750Y-106975000D01*
X120247309Y-106973947D01*
X120226074Y-106970797D01*
X120205250Y-106965581D01*
X120185038Y-106958349D01*
X120165632Y-106949170D01*
X120147219Y-106938134D01*
X120129976Y-106925346D01*
X120114070Y-106910930D01*
X120099654Y-106895024D01*
X120086866Y-106877781D01*
X120075830Y-106859368D01*
X120066651Y-106839962D01*
X120059419Y-106819750D01*
X120054203Y-106798926D01*
X120051053Y-106777691D01*
X120050000Y-106756250D01*
X120050000Y-106243750D01*
X120051053Y-106222309D01*
X120054203Y-106201074D01*
X120059419Y-106180250D01*
X120066651Y-106160038D01*
X120075830Y-106140632D01*
X120086866Y-106122219D01*
X120099654Y-106104976D01*
X120114070Y-106089070D01*
X120129976Y-106074654D01*
X120147219Y-106061866D01*
X120165632Y-106050830D01*
X120185038Y-106041651D01*
X120205250Y-106034419D01*
X120226074Y-106029203D01*
X120247309Y-106026053D01*
X120268750Y-106025000D01*
X120706250Y-106025000D01*
X120727691Y-106026053D01*
X120727691Y-106026053D01*
G37*
D13*
X120487500Y-106500000D03*
D11*
G36*
X131346958Y-105580710D02*
G01*
X131361276Y-105582834D01*
X131375317Y-105586351D01*
X131388946Y-105591228D01*
X131402031Y-105597417D01*
X131414447Y-105604858D01*
X131426073Y-105613481D01*
X131436798Y-105623202D01*
X131446519Y-105633927D01*
X131455142Y-105645553D01*
X131462583Y-105657969D01*
X131468772Y-105671054D01*
X131473649Y-105684683D01*
X131477166Y-105698724D01*
X131479290Y-105713042D01*
X131480000Y-105727500D01*
X131480000Y-106072500D01*
X131479290Y-106086958D01*
X131477166Y-106101276D01*
X131473649Y-106115317D01*
X131468772Y-106128946D01*
X131462583Y-106142031D01*
X131455142Y-106154447D01*
X131446519Y-106166073D01*
X131436798Y-106176798D01*
X131426073Y-106186519D01*
X131414447Y-106195142D01*
X131402031Y-106202583D01*
X131388946Y-106208772D01*
X131375317Y-106213649D01*
X131361276Y-106217166D01*
X131346958Y-106219290D01*
X131332500Y-106220000D01*
X131037500Y-106220000D01*
X131023042Y-106219290D01*
X131008724Y-106217166D01*
X130994683Y-106213649D01*
X130981054Y-106208772D01*
X130967969Y-106202583D01*
X130955553Y-106195142D01*
X130943927Y-106186519D01*
X130933202Y-106176798D01*
X130923481Y-106166073D01*
X130914858Y-106154447D01*
X130907417Y-106142031D01*
X130901228Y-106128946D01*
X130896351Y-106115317D01*
X130892834Y-106101276D01*
X130890710Y-106086958D01*
X130890000Y-106072500D01*
X130890000Y-105727500D01*
X130890710Y-105713042D01*
X130892834Y-105698724D01*
X130896351Y-105684683D01*
X130901228Y-105671054D01*
X130907417Y-105657969D01*
X130914858Y-105645553D01*
X130923481Y-105633927D01*
X130933202Y-105623202D01*
X130943927Y-105613481D01*
X130955553Y-105604858D01*
X130967969Y-105597417D01*
X130981054Y-105591228D01*
X130994683Y-105586351D01*
X131008724Y-105582834D01*
X131023042Y-105580710D01*
X131037500Y-105580000D01*
X131332500Y-105580000D01*
X131346958Y-105580710D01*
X131346958Y-105580710D01*
G37*
D12*
X131185000Y-105900000D03*
D11*
G36*
X130376958Y-105580710D02*
G01*
X130391276Y-105582834D01*
X130405317Y-105586351D01*
X130418946Y-105591228D01*
X130432031Y-105597417D01*
X130444447Y-105604858D01*
X130456073Y-105613481D01*
X130466798Y-105623202D01*
X130476519Y-105633927D01*
X130485142Y-105645553D01*
X130492583Y-105657969D01*
X130498772Y-105671054D01*
X130503649Y-105684683D01*
X130507166Y-105698724D01*
X130509290Y-105713042D01*
X130510000Y-105727500D01*
X130510000Y-106072500D01*
X130509290Y-106086958D01*
X130507166Y-106101276D01*
X130503649Y-106115317D01*
X130498772Y-106128946D01*
X130492583Y-106142031D01*
X130485142Y-106154447D01*
X130476519Y-106166073D01*
X130466798Y-106176798D01*
X130456073Y-106186519D01*
X130444447Y-106195142D01*
X130432031Y-106202583D01*
X130418946Y-106208772D01*
X130405317Y-106213649D01*
X130391276Y-106217166D01*
X130376958Y-106219290D01*
X130362500Y-106220000D01*
X130067500Y-106220000D01*
X130053042Y-106219290D01*
X130038724Y-106217166D01*
X130024683Y-106213649D01*
X130011054Y-106208772D01*
X129997969Y-106202583D01*
X129985553Y-106195142D01*
X129973927Y-106186519D01*
X129963202Y-106176798D01*
X129953481Y-106166073D01*
X129944858Y-106154447D01*
X129937417Y-106142031D01*
X129931228Y-106128946D01*
X129926351Y-106115317D01*
X129922834Y-106101276D01*
X129920710Y-106086958D01*
X129920000Y-106072500D01*
X129920000Y-105727500D01*
X129920710Y-105713042D01*
X129922834Y-105698724D01*
X129926351Y-105684683D01*
X129931228Y-105671054D01*
X129937417Y-105657969D01*
X129944858Y-105645553D01*
X129953481Y-105633927D01*
X129963202Y-105623202D01*
X129973927Y-105613481D01*
X129985553Y-105604858D01*
X129997969Y-105597417D01*
X130011054Y-105591228D01*
X130024683Y-105586351D01*
X130038724Y-105582834D01*
X130053042Y-105580710D01*
X130067500Y-105580000D01*
X130362500Y-105580000D01*
X130376958Y-105580710D01*
X130376958Y-105580710D01*
G37*
D12*
X130215000Y-105900000D03*
D11*
G36*
X120276958Y-99080710D02*
G01*
X120291276Y-99082834D01*
X120305317Y-99086351D01*
X120318946Y-99091228D01*
X120332031Y-99097417D01*
X120344447Y-99104858D01*
X120356073Y-99113481D01*
X120366798Y-99123202D01*
X120376519Y-99133927D01*
X120385142Y-99145553D01*
X120392583Y-99157969D01*
X120398772Y-99171054D01*
X120403649Y-99184683D01*
X120407166Y-99198724D01*
X120409290Y-99213042D01*
X120410000Y-99227500D01*
X120410000Y-99572500D01*
X120409290Y-99586958D01*
X120407166Y-99601276D01*
X120403649Y-99615317D01*
X120398772Y-99628946D01*
X120392583Y-99642031D01*
X120385142Y-99654447D01*
X120376519Y-99666073D01*
X120366798Y-99676798D01*
X120356073Y-99686519D01*
X120344447Y-99695142D01*
X120332031Y-99702583D01*
X120318946Y-99708772D01*
X120305317Y-99713649D01*
X120291276Y-99717166D01*
X120276958Y-99719290D01*
X120262500Y-99720000D01*
X119967500Y-99720000D01*
X119953042Y-99719290D01*
X119938724Y-99717166D01*
X119924683Y-99713649D01*
X119911054Y-99708772D01*
X119897969Y-99702583D01*
X119885553Y-99695142D01*
X119873927Y-99686519D01*
X119863202Y-99676798D01*
X119853481Y-99666073D01*
X119844858Y-99654447D01*
X119837417Y-99642031D01*
X119831228Y-99628946D01*
X119826351Y-99615317D01*
X119822834Y-99601276D01*
X119820710Y-99586958D01*
X119820000Y-99572500D01*
X119820000Y-99227500D01*
X119820710Y-99213042D01*
X119822834Y-99198724D01*
X119826351Y-99184683D01*
X119831228Y-99171054D01*
X119837417Y-99157969D01*
X119844858Y-99145553D01*
X119853481Y-99133927D01*
X119863202Y-99123202D01*
X119873927Y-99113481D01*
X119885553Y-99104858D01*
X119897969Y-99097417D01*
X119911054Y-99091228D01*
X119924683Y-99086351D01*
X119938724Y-99082834D01*
X119953042Y-99080710D01*
X119967500Y-99080000D01*
X120262500Y-99080000D01*
X120276958Y-99080710D01*
X120276958Y-99080710D01*
G37*
D12*
X120115000Y-99400000D03*
D11*
G36*
X121246958Y-99080710D02*
G01*
X121261276Y-99082834D01*
X121275317Y-99086351D01*
X121288946Y-99091228D01*
X121302031Y-99097417D01*
X121314447Y-99104858D01*
X121326073Y-99113481D01*
X121336798Y-99123202D01*
X121346519Y-99133927D01*
X121355142Y-99145553D01*
X121362583Y-99157969D01*
X121368772Y-99171054D01*
X121373649Y-99184683D01*
X121377166Y-99198724D01*
X121379290Y-99213042D01*
X121380000Y-99227500D01*
X121380000Y-99572500D01*
X121379290Y-99586958D01*
X121377166Y-99601276D01*
X121373649Y-99615317D01*
X121368772Y-99628946D01*
X121362583Y-99642031D01*
X121355142Y-99654447D01*
X121346519Y-99666073D01*
X121336798Y-99676798D01*
X121326073Y-99686519D01*
X121314447Y-99695142D01*
X121302031Y-99702583D01*
X121288946Y-99708772D01*
X121275317Y-99713649D01*
X121261276Y-99717166D01*
X121246958Y-99719290D01*
X121232500Y-99720000D01*
X120937500Y-99720000D01*
X120923042Y-99719290D01*
X120908724Y-99717166D01*
X120894683Y-99713649D01*
X120881054Y-99708772D01*
X120867969Y-99702583D01*
X120855553Y-99695142D01*
X120843927Y-99686519D01*
X120833202Y-99676798D01*
X120823481Y-99666073D01*
X120814858Y-99654447D01*
X120807417Y-99642031D01*
X120801228Y-99628946D01*
X120796351Y-99615317D01*
X120792834Y-99601276D01*
X120790710Y-99586958D01*
X120790000Y-99572500D01*
X120790000Y-99227500D01*
X120790710Y-99213042D01*
X120792834Y-99198724D01*
X120796351Y-99184683D01*
X120801228Y-99171054D01*
X120807417Y-99157969D01*
X120814858Y-99145553D01*
X120823481Y-99133927D01*
X120833202Y-99123202D01*
X120843927Y-99113481D01*
X120855553Y-99104858D01*
X120867969Y-99097417D01*
X120881054Y-99091228D01*
X120894683Y-99086351D01*
X120908724Y-99082834D01*
X120923042Y-99080710D01*
X120937500Y-99080000D01*
X121232500Y-99080000D01*
X121246958Y-99080710D01*
X121246958Y-99080710D01*
G37*
D12*
X121085000Y-99400000D03*
D11*
G36*
X120276958Y-100380710D02*
G01*
X120291276Y-100382834D01*
X120305317Y-100386351D01*
X120318946Y-100391228D01*
X120332031Y-100397417D01*
X120344447Y-100404858D01*
X120356073Y-100413481D01*
X120366798Y-100423202D01*
X120376519Y-100433927D01*
X120385142Y-100445553D01*
X120392583Y-100457969D01*
X120398772Y-100471054D01*
X120403649Y-100484683D01*
X120407166Y-100498724D01*
X120409290Y-100513042D01*
X120410000Y-100527500D01*
X120410000Y-100872500D01*
X120409290Y-100886958D01*
X120407166Y-100901276D01*
X120403649Y-100915317D01*
X120398772Y-100928946D01*
X120392583Y-100942031D01*
X120385142Y-100954447D01*
X120376519Y-100966073D01*
X120366798Y-100976798D01*
X120356073Y-100986519D01*
X120344447Y-100995142D01*
X120332031Y-101002583D01*
X120318946Y-101008772D01*
X120305317Y-101013649D01*
X120291276Y-101017166D01*
X120276958Y-101019290D01*
X120262500Y-101020000D01*
X119967500Y-101020000D01*
X119953042Y-101019290D01*
X119938724Y-101017166D01*
X119924683Y-101013649D01*
X119911054Y-101008772D01*
X119897969Y-101002583D01*
X119885553Y-100995142D01*
X119873927Y-100986519D01*
X119863202Y-100976798D01*
X119853481Y-100966073D01*
X119844858Y-100954447D01*
X119837417Y-100942031D01*
X119831228Y-100928946D01*
X119826351Y-100915317D01*
X119822834Y-100901276D01*
X119820710Y-100886958D01*
X119820000Y-100872500D01*
X119820000Y-100527500D01*
X119820710Y-100513042D01*
X119822834Y-100498724D01*
X119826351Y-100484683D01*
X119831228Y-100471054D01*
X119837417Y-100457969D01*
X119844858Y-100445553D01*
X119853481Y-100433927D01*
X119863202Y-100423202D01*
X119873927Y-100413481D01*
X119885553Y-100404858D01*
X119897969Y-100397417D01*
X119911054Y-100391228D01*
X119924683Y-100386351D01*
X119938724Y-100382834D01*
X119953042Y-100380710D01*
X119967500Y-100380000D01*
X120262500Y-100380000D01*
X120276958Y-100380710D01*
X120276958Y-100380710D01*
G37*
D12*
X120115000Y-100700000D03*
D11*
G36*
X121246958Y-100380710D02*
G01*
X121261276Y-100382834D01*
X121275317Y-100386351D01*
X121288946Y-100391228D01*
X121302031Y-100397417D01*
X121314447Y-100404858D01*
X121326073Y-100413481D01*
X121336798Y-100423202D01*
X121346519Y-100433927D01*
X121355142Y-100445553D01*
X121362583Y-100457969D01*
X121368772Y-100471054D01*
X121373649Y-100484683D01*
X121377166Y-100498724D01*
X121379290Y-100513042D01*
X121380000Y-100527500D01*
X121380000Y-100872500D01*
X121379290Y-100886958D01*
X121377166Y-100901276D01*
X121373649Y-100915317D01*
X121368772Y-100928946D01*
X121362583Y-100942031D01*
X121355142Y-100954447D01*
X121346519Y-100966073D01*
X121336798Y-100976798D01*
X121326073Y-100986519D01*
X121314447Y-100995142D01*
X121302031Y-101002583D01*
X121288946Y-101008772D01*
X121275317Y-101013649D01*
X121261276Y-101017166D01*
X121246958Y-101019290D01*
X121232500Y-101020000D01*
X120937500Y-101020000D01*
X120923042Y-101019290D01*
X120908724Y-101017166D01*
X120894683Y-101013649D01*
X120881054Y-101008772D01*
X120867969Y-101002583D01*
X120855553Y-100995142D01*
X120843927Y-100986519D01*
X120833202Y-100976798D01*
X120823481Y-100966073D01*
X120814858Y-100954447D01*
X120807417Y-100942031D01*
X120801228Y-100928946D01*
X120796351Y-100915317D01*
X120792834Y-100901276D01*
X120790710Y-100886958D01*
X120790000Y-100872500D01*
X120790000Y-100527500D01*
X120790710Y-100513042D01*
X120792834Y-100498724D01*
X120796351Y-100484683D01*
X120801228Y-100471054D01*
X120807417Y-100457969D01*
X120814858Y-100445553D01*
X120823481Y-100433927D01*
X120833202Y-100423202D01*
X120843927Y-100413481D01*
X120855553Y-100404858D01*
X120867969Y-100397417D01*
X120881054Y-100391228D01*
X120894683Y-100386351D01*
X120908724Y-100382834D01*
X120923042Y-100380710D01*
X120937500Y-100380000D01*
X121232500Y-100380000D01*
X121246958Y-100380710D01*
X121246958Y-100380710D01*
G37*
D12*
X121085000Y-100700000D03*
M02*
