G04 #@! TF.GenerationSoftware,KiCad,Pcbnew,(5.1.2)-1*
G04 #@! TF.CreationDate,2026-09-02T20:34:07+09:00*
G04 #@! TF.ProjectId,um,756d2e6b-6963-4616-945f-706362585858,v1.0*
G04 #@! TF.SameCoordinates,Original*
G04 #@! TF.FileFunction,Soldermask,Top*
G04 #@! TF.FilePolarity,Negative*
%FSLAX46Y46*%
G04 Gerber Fmt 4.6, Leading zero omitted, Abs format (unit mm)*
G04 Created by KiCad (PCBNEW (5.1.2)-1) date 2026-09-02 20:34:07*
%MOMM*%
%LPD*%
G04 APERTURE LIST*
%ADD10C,0.100000*%
G04 APERTURE END LIST*
D10*
G36*
X126901000Y-106851000D02*
G01*
X125499000Y-106851000D01*
X125499000Y-105549000D01*
X126901000Y-105549000D01*
X126901000Y-106851000D01*
X126901000Y-106851000D01*
G37*
G36*
X122801000Y-106851000D02*
G01*
X121399000Y-106851000D01*
X121399000Y-105549000D01*
X122801000Y-105549000D01*
X122801000Y-106851000D01*
X122801000Y-106851000D01*
G37*
G36*
X120651000Y-105701000D02*
G01*
X119349000Y-105701000D01*
X119349000Y-104299000D01*
X120651000Y-104299000D01*
X120651000Y-105701000D01*
X120651000Y-105701000D01*
G37*
G36*
X116500000Y-105400000D02*
G01*
X108600000Y-105400000D01*
X108600000Y-103500000D01*
X116500000Y-103500000D01*
X116500000Y-105400000D01*
X116500000Y-105400000D01*
G37*
G36*
X131346909Y-104173744D02*
G01*
X130673744Y-104846909D01*
X129753091Y-103926256D01*
X130426256Y-103253091D01*
X131346909Y-104173744D01*
X131346909Y-104173744D01*
G37*
G36*
X120651000Y-103176000D02*
G01*
X119349000Y-103176000D01*
X119349000Y-101774000D01*
X120651000Y-101774000D01*
X120651000Y-103176000D01*
X120651000Y-103176000D01*
G37*
G36*
X116500000Y-102700000D02*
G01*
X109600000Y-102700000D01*
X109600000Y-101300000D01*
X116500000Y-101300000D01*
X116500000Y-102700000D01*
X116500000Y-102700000D01*
G37*
G36*
X116500000Y-100650000D02*
G01*
X109600000Y-100650000D01*
X109600000Y-99250000D01*
X116500000Y-99250000D01*
X116500000Y-100650000D01*
X116500000Y-100650000D01*
G37*
G36*
X120651000Y-100226000D02*
G01*
X119349000Y-100226000D01*
X119349000Y-98824000D01*
X120651000Y-98824000D01*
X120651000Y-100226000D01*
X120651000Y-100226000D01*
G37*
G36*
X131346909Y-97826256D02*
G01*
X130426256Y-98746909D01*
X129753091Y-98073744D01*
X130673744Y-97153091D01*
X131346909Y-97826256D01*
X131346909Y-97826256D01*
G37*
G36*
X116500000Y-98450000D02*
G01*
X108600000Y-98450000D01*
X108600000Y-96550000D01*
X116500000Y-96550000D01*
X116500000Y-98450000D01*
X116500000Y-98450000D01*
G37*
G36*
X120651000Y-97701000D02*
G01*
X119349000Y-97701000D01*
X119349000Y-96299000D01*
X120651000Y-96299000D01*
X120651000Y-97701000D01*
X120651000Y-97701000D01*
G37*
G36*
X126901000Y-96451000D02*
G01*
X125499000Y-96451000D01*
X125499000Y-95149000D01*
X126901000Y-95149000D01*
X126901000Y-96451000D01*
X126901000Y-96451000D01*
G37*
G36*
X122801000Y-96451000D02*
G01*
X121399000Y-96451000D01*
X121399000Y-95149000D01*
X122801000Y-95149000D01*
X122801000Y-96451000D01*
X122801000Y-96451000D01*
G37*
G36*
X118938015Y-94456973D02*
G01*
X119041879Y-94488479D01*
X119069055Y-94503005D01*
X119137600Y-94539643D01*
X119221501Y-94608499D01*
X119290356Y-94692400D01*
X119313764Y-94736193D01*
X119327375Y-94756563D01*
X119344702Y-94773890D01*
X119365076Y-94787504D01*
X119387715Y-94796881D01*
X119411748Y-94801662D01*
X119436252Y-94801662D01*
X119460286Y-94796882D01*
X119482924Y-94787505D01*
X119503299Y-94773891D01*
X119520626Y-94756564D01*
X119534240Y-94736190D01*
X119543617Y-94713551D01*
X119548398Y-94689518D01*
X119549000Y-94677265D01*
X119549000Y-94449000D01*
X120651000Y-94449000D01*
X120651000Y-95551000D01*
X119549000Y-95551000D01*
X119549000Y-95322735D01*
X119546598Y-95298349D01*
X119539485Y-95274900D01*
X119527934Y-95253289D01*
X119512389Y-95234347D01*
X119493447Y-95218802D01*
X119471836Y-95207251D01*
X119448387Y-95200138D01*
X119424001Y-95197736D01*
X119399615Y-95200138D01*
X119376166Y-95207251D01*
X119354555Y-95218802D01*
X119335613Y-95234347D01*
X119320068Y-95253289D01*
X119313767Y-95263802D01*
X119290356Y-95307600D01*
X119290355Y-95307601D01*
X119221501Y-95391501D01*
X119137600Y-95460357D01*
X119069055Y-95496995D01*
X119041879Y-95511521D01*
X118938015Y-95543027D01*
X118857067Y-95551000D01*
X118802933Y-95551000D01*
X118721985Y-95543027D01*
X118618121Y-95511521D01*
X118590945Y-95496995D01*
X118522400Y-95460357D01*
X118438499Y-95391501D01*
X118369643Y-95307600D01*
X118330489Y-95234347D01*
X118318479Y-95211879D01*
X118286973Y-95108015D01*
X118276334Y-95000000D01*
X118286973Y-94891985D01*
X118318479Y-94788121D01*
X118358338Y-94713551D01*
X118369643Y-94692400D01*
X118438499Y-94608499D01*
X118522400Y-94539643D01*
X118590945Y-94503005D01*
X118618121Y-94488479D01*
X118721985Y-94456973D01*
X118802933Y-94449000D01*
X118857067Y-94449000D01*
X118938015Y-94456973D01*
X118938015Y-94456973D01*
G37*
M02*
