M48
; DRILL file {KiCad (5.1.2)-1} date 2026/09/02 20:34:08
; FORMAT={-:-/ absolute / metric / decimal}
; #@! TF.CreationDate,2026-09-02T20:34:08+09:00
; #@! TF.GenerationSoftware,Kicad,Pcbnew,(5.1.2)-1
FMAT,2
METRIC
T1C0.400
T2C0.650
T3C1.600
%
G90
G05
T1
X117.6Y-96.7
X117.9Y-103.2
X118.19Y-105.594
X118.3Y-104.5
X118.5Y-98.7
X118.5Y-102.0
X122.5Y-101.2
X124.1Y-95.6
X125.2Y-103.9
X125.7Y-102.0
X126.2Y-98.2
X126.4Y-100.3
X128.4Y-105.6
X128.95Y-97.95
X129.7Y-95.6
X130.7Y-99.9
T2
X118.83Y-95.0
X120.1Y-95.0
T3
X123.0Y-98.0
X123.0Y-104.0
T0
M30
